<svg xmlns="http://www.w3.org/2000/svg" viewBox="0 0 812 680.53"><defs><style>.cls-1{fill:#dbebd3;}.cls-2{fill:#f2f2f2;}.cls-3{fill:#1a1a1a;}.cls-4{fill:gray;}.cls-5{fill:#e6e6e6;}.cls-6{fill:#333;}.cls-7{fill:#4d4d4d;}</style></defs><g id="Layer_14" data-name="Layer 14"><rect class="cls-1" x="13" y="18" width="774" height="646.53" rx="171.09"/><path class="cls-2" d="M474.79,106.07c17.12-2.64,74.38-2.86,151.93,0a36.3,36.3,0,0,1,7.65,0c1.52.17,16.15,2,23.41,12.29,7.51,10.67,4.38,26.52,4.53,26.51s0-1,0-1.94q.21,181.33.44,362.68a30.07,30.07,0,0,1,0,6.42,29.63,29.63,0,0,1-9.5,18.87A29,29,0,0,1,635.8,538L480,537.36a31,31,0,0,1-9-1.29,27.07,27.07,0,0,1-13.66-8.41,25.78,25.78,0,0,1-5.82-14.22V231q-.31-38.21-.65-76.41a86.52,86.52,0,0,1,0-18.75c.94-8.54,1.73-15.75,6.47-21.34C459.9,111.45,464.62,107.64,474.79,106.07Z"/><circle class="cls-3" cx="527.49" cy="132.26" r="2.91"/><circle class="cls-3" cx="556.91" cy="119.65" r="1.94"/><rect class="cls-3" x="542.68" y="130.65" width="28.45" height="3.23" rx="1.62"/><circle class="cls-4" cx="556.59" cy="511.18" r="14.55"/><circle class="cls-5" cx="556.59" cy="511.18" r="13.26"/><rect class="cls-5" x="462.5" y="153.92" width="187.38" height="334.69"/><path class="cls-3" d="M171.79,106.07c17.12-2.64,74.38-2.86,151.93,0a36.3,36.3,0,0,1,7.65,0c1.52.17,16.15,2,23.41,12.29,7.51,10.67,4.38,26.52,4.53,26.51s0-1,0-1.94q.21,181.33.44,362.68a30.07,30.07,0,0,1,0,6.42,29.63,29.63,0,0,1-9.5,18.87A29,29,0,0,1,332.8,538L177,537.36a31,31,0,0,1-9-1.29,27.07,27.07,0,0,1-13.66-8.41,25.78,25.78,0,0,1-5.82-14.22V231q-.31-38.21-.65-76.41a86.52,86.52,0,0,1,0-18.75c.94-8.54,1.73-15.75,6.47-21.34C156.9,111.45,161.62,107.64,171.79,106.07Z"/><circle class="cls-6" cx="224.49" cy="132.26" r="2.91"/><circle class="cls-7" cx="253.91" cy="119.65" r="1.94"/><rect class="cls-6" x="239.68" y="130.65" width="28.45" height="3.23" rx="1.62"/><circle class="cls-4" cx="253.59" cy="511.18" r="14.55"/><circle class="cls-6" cx="253.59" cy="511.18" r="13.26"/><rect class="cls-5" x="159.5" y="153.92" width="187.38" height="334.69"/></g></svg>
