<svg id="Layer_7" data-name="Layer 7" xmlns="http://www.w3.org/2000/svg" viewBox="0 0 810 681.53"><defs><style>.cls-1{fill:#f4eaeb;}.cls-2{fill:#ccc;}.cls-3{fill:#c7cccc;}</style></defs><rect class="cls-1" x="13" y="18" width="774" height="646.53" rx="171.09"/><path d="M100.27,450.06V115.2a24.48,24.48,0,0,1,0-6.84,19.75,19.75,0,0,1,3-8.54c4.31-6,12.79-6,14-6l555.28-.33a75,75,0,0,1,12,0c5.67.45,7.22,1.23,8,1.66,4.18,2.44,5.54,7.22,6,9.33q.84,172.8,1.67,345.58Z"/><path class="cls-2" d="M100.27,450.06V485a16.18,16.18,0,0,0,0,5.9c1.67,8.72,10.34,12.89,11.67,13.51H674.06a39.46,39.46,0,0,0,10.86,0c4.75-.66,9-1.26,12.25-4.66a13.73,13.73,0,0,0,3.33-6.67l-.33-43Z"/><polygon class="cls-2" points="339.91 504.78 460.31 504.78 464.54 561.74 334.12 561.74 339.91 504.78"/><path class="cls-3" d="M333.23,563.73l.89-2H464.54a18,18,0,0,0,.86,2,22.26,22.26,0,0,0,7.81,8.67l15.33,9.33a3.55,3.55,0,0,1,1.33.67c1.87,1.51,1.37,4.45,1.33,4.66a3,3,0,0,1-.66,1.34,3.72,3.72,0,0,1-3.14,1H314a4.77,4.77,0,0,1-3.39-1,5,5,0,0,1-1.33-5.34Z"/></svg>
