<svg xmlns="http://www.w3.org/2000/svg" viewBox="0 0 810 687.53"><defs><style>.cls-1{fill:#bfb9b2;}.cls-2{fill:#8f8f8f;}.cls-3{fill:#ccc;}.cls-4{fill:#fff;stroke:#000;stroke-miterlimit:10;}</style></defs><g id="Layer_2" data-name="Layer 2"><rect class="cls-1" x="15" y="20" width="774" height="646.53" rx="171.09"/><path d="M147.27,516.11l-.72-333.56a26.77,26.77,0,0,1,0-7.61c.51-3.57,1.1-7.65,4.35-10.52s7.78-3,9.43-2.9c279.48-1.77,483.36-1.72,494.54-2.9A18.13,18.13,0,0,1,668.65,163a17.33,17.33,0,0,1,5.07,8.7q2,172.22,3.95,344.44Z"/><path class="cls-2" d="M734.63,527.71a47.46,47.46,0,0,1-5.8,2.9,48.42,48.42,0,0,1-16,3.63L110.29,535c-.73,0-1.47,0-2.23,0a39.66,39.66,0,0,1-21-7.25Z"/><rect class="cls-3" x="85" y="516.97" width="652.62" height="10.39"/><rect class="cls-4" x="161.05" y="178.19" width="500.93" height="317.19"/></g></svg>
