<svg xmlns="http://www.w3.org/2000/svg" viewBox="0 0 807.1 673.53"><defs><style>.cls-1{fill:#dceff3;}.cls-2{fill:#ccc;}.cls-3{fill:#b3b3b3;}.cls-4{fill:#1a1a1a;}.cls-5{fill:#999;}.cls-6{fill:#f2f2f2;}</style></defs><g id="Layer_19" data-name="Layer 19"><rect class="cls-1" x="19" y="17" width="774" height="646.53" rx="171.09"/><path class="cls-2" d="M793,493.35H722.8L393,492l-80,61-5,4H780.34a200.86,200.86,0,0,0,12.47-59.19C792.89,496.31,793,494.83,793,493.35Z"/><polygon class="cls-2" points="308 558.08 308 563.49 761.8 563.49 768.05 563.49 775.35 563.49 779.8 559.33 780.12 556.91 308 558.08"/><path class="cls-3" d="M307.81,563.49,338,569l432.6,2.82,4.77-8.19Z"/><path class="cls-4" d="M433,499l-27,28.77H789.53A86.67,86.67,0,0,0,792,517a85.8,85.8,0,0,0,1-18Z"/><path class="cls-5" d="M781.93,554H579l9-23,200.17,1.59A78.3,78.3,0,0,1,784,549Q783,551.62,781.93,554Z"/></g><g id="Layer_21" data-name="Layer 21"><path d="M793.1,471.87l-.1,21.48L406,492c-.41.21-7.05,3.6-13,0a12.5,12.5,0,0,1-5-6l1-360a127,127,0,0,1-1-30.07C389.22,82,392,78.28,393,77c7.49-9.22,21.73-8.29,25-8H738.72a8.82,8.82,0,0,1,4.94-.17A10,10,0,0,1,749,73c9.51,13.24,21,30,21,30,2.79,5.59,5.49,11.59,8,18a226.08,226.08,0,0,1,15,68Z"/></g><g id="Layer_20" data-name="Layer 20"><path class="cls-6" d="M763.93,94c-.42-.64-349.8-.53-351.5,0V471.09H793.1L793,189c0-1.42.06-3.65,0-6.39C793,182.62,792,137.39,763.93,94Z"/></g></svg>
