<svg xmlns="http://www.w3.org/2000/svg" xmlns:xlink="http://www.w3.org/1999/xlink" viewBox="0 0 697.73 1003.29"><defs><style>.cls-1{fill:#edf2f6;}.cls-2{fill:#d69077;}.cls-3{fill:#8c6239;}.cls-28,.cls-4{fill:#d7967a;}.cls-5,.cls-6{fill:#d69a81;}.cls-6{opacity:0.11;}.cls-7{fill:#d9967b;}.cls-8{fill:#c88a75;}.cls-9{fill:#efe7e3;}.cls-10{fill:#e3e7e3;}.cls-11{fill:#cee7e3;}.cls-12{fill:#d26f70;}.cls-13{fill:#d25065;}.cls-14{fill:#bc5065;}.cls-15{fill:#42210b;}.cls-16{fill:url(#Sky);}.cls-17{fill:#1b1464;}.cls-17,.cls-25{opacity:0.71;}.cls-18{fill:url(#Sky-2);}.cls-19{fill:#fff;}.cls-20,.cls-21,.cls-22,.cls-23,.cls-24,.cls-25,.cls-26,.cls-27{fill:#c5c9cb;}.cls-20{opacity:0.69;}.cls-21{opacity:0.7;}.cls-22{opacity:0.68;}.cls-24{opacity:0.2;}.cls-26{opacity:0.14;}.cls-27{opacity:0.09;}.cls-28,.cls-33{stroke:#e78c5f;stroke-miterlimit:10;stroke-width:0.75px;}.cls-29,.cls-32{fill:#d38c76;}.cls-30{fill:#513421;}.cls-31{fill:#db9a81;}.cls-32{opacity:0.5;}.cls-33{fill:none;}</style><linearGradient id="Sky" x1="-1018.26" y1="-455.71" x2="-988.26" y2="-455.71" gradientTransform="translate(-566.04 -152.05) rotate(180) scale(0.91 1)" gradientUnits="userSpaceOnUse"><stop offset="0" stop-color="#cce0f4"/><stop offset="0.06" stop-color="#c3dcf2"/><stop offset="0.17" stop-color="#a9d2ee"/><stop offset="0.31" stop-color="#80c2e7"/><stop offset="0.46" stop-color="#47acde"/><stop offset="0.57" stop-color="#1e9cd7"/><stop offset="0.87" stop-color="#0075be"/><stop offset="0.99" stop-color="#005b97"/></linearGradient><linearGradient id="Sky-2" x1="-714.93" y1="-537.39" x2="-683.93" y2="-537.39" gradientTransform="translate(-330.39 1026.83) rotate(90)" xlink:href="#Sky"/></defs><g id="Layer_9" data-name="Layer 9"><path class="cls-1" d="M612.87,987.4H20.21L20,932.9,11.5,948V561.4a79.33,79.33,0,0,1,13-16.89c6-6,15.5-15.32,28.49-17.61,21.21-3.73,38.7,13.65,41,16L285.62,562a104.94,104.94,0,0,0,9.86,4.28A106.05,106.05,0,0,0,317,571.9c27.32,4.4,65,42,65,42,20.62,20.58,72.56,59.19,198,136l21,66-17.28,22.5A15.58,15.58,0,0,0,591,856.9c5,3.38,12.42,15.36,22.5,53.5a162.57,162.57,0,0,1,2,65C614.76,979.58,613.87,983.58,612.87,987.4Z"/><path class="cls-2" d="M436.67,485.51l7.16,176.79L365.5,599.4a136.34,136.34,0,0,0-48-28Z"/><path class="cls-3" d="M436.53,484.28c2-3.19,3.69-6.67,5.68-9.93"/><path class="cls-3" d="M437,484.53c2-3.24,3.7-6.67,5.68-9.93a.5.5,0,0,0-.86-.5c-2,3.26-3.67,6.68-5.68,9.92a.5.5,0,0,0,.86.51Z"/><path class="cls-3" d="M436.5,484.56a6.88,6.88,0,0,0,1-1.48,6.55,6.55,0,0,1,.94-1.43,33.73,33.73,0,0,1,2.87-2.17.49.49,0,1,0-.7-.7,30.45,30.45,0,0,0-2.88,2.16c-.82.86-1.16,2.05-2,2.92-.44.46.26,1.17.71.7Z"/><path class="cls-4" d="M390.5,531.4c.58,0,.65,1.84,3,31,3.51,43.59,4.5,53.72,3,54-1.71.32-5.8-12.28-8-22C381.13,561.85,388.08,531.29,390.5,531.4Z"/><path class="cls-5" d="M212.54,455.28a.5.5,0,0,0,0-1,.5.5,0,0,0,0,1Z"/><path class="cls-6" d="M430.38,484.3a8.41,8.41,0,0,0-3.65,2.69,18.84,18.84,0,0,0-2.12,3.12,67.56,67.56,0,0,1-4.33,7.05s2.72-.06,2.72-.06c.57-.05,2.18.06,2.7-.37,1.78-1.47,2.85-3.4,4.27-5.19a11.8,11.8,0,0,1,5.33-4.14l-2.38-1.68C432.75,485.61,430.76,484.09,430.38,484.3Z"/><path class="cls-6" d="M430.76,485a8.56,8.56,0,0,0-3.67,2.64,18.38,18.38,0,0,0-2.17,3.08,73.57,73.57,0,0,1-4.4,7,14.69,14.69,0,0,1,1.76-.21c.7-.14,2.09-.15,2.65-.63,1.84-1.6,3-3.61,4.46-5.52a12.14,12.14,0,0,1,5.43-4.28s-2-1.19-2-1.18C432.63,485.81,431.13,484.82,430.76,485Z"/><path class="cls-6" d="M429.52,483.22a8.84,8.84,0,0,0-3.77,2.76,18,18,0,0,0-2.25,3.24c-1.49,2.5-2.8,5.06-4.51,7.42-.2.28,1.05.5,1.18.34,1.77-2.32,3.18-4.84,4.8-7.26a14.83,14.83,0,0,1,2.32-2.92,9.52,9.52,0,0,1,3.78-2.45S429.93,483,429.52,483.22Z"/><path class="cls-6" d="M429.13,485.35a9.11,9.11,0,0,0-3.67,2.92,24.08,24.08,0,0,0-2.17,3.3c-1.47,2.53-2.73,5.1-4.44,7.48-.17.23.83.18,1,0a81,81,0,0,0,4.3-7.26,25.47,25.47,0,0,1,2.07-3.18,9.46,9.46,0,0,1,3.57-2.92C430,485.53,429.29,485.25,429.13,485.35Z"/><path class="cls-6" d="M430.59,485.27a8.76,8.76,0,0,0-3.68,2.64,18.94,18.94,0,0,0-2.18,3.09,79.87,79.87,0,0,1-4.43,7c.09-.12,2.67-.46,2.76-.49a7.3,7.3,0,0,0,2.7-.78c1.8-1.49,2.91-3.41,4.37-5.22a19.47,19.47,0,0,1,2-2.25,7.55,7.55,0,0,1,3.41-1.85c-.07,0-2.39-1.21-2.42-1.22C432.84,486.09,431,485,430.59,485.27Z"/><path class="cls-6" d="M430.57,484.64a8.57,8.57,0,0,0-3.65,2.67,18.79,18.79,0,0,0-2.14,3.1,71.32,71.32,0,0,1-4.35,7c0-.05,2.72-.19,2.75-.19.61-.08,2.15,0,2.7-.5,1.78-1.45,2.86-3.37,4.29-5.15a11.9,11.9,0,0,1,5.34-4.09s-2.4-1.57-2.39-1.56C432.92,485.83,431,484.43,430.57,484.64Z"/><path class="cls-6" d="M429.83,485.29A11.78,11.78,0,0,0,425.4,489c-2.17,2.93-3.58,6.3-5.8,9.21-.25.33.88-.08.77-.05a5.21,5.21,0,0,0,2-.8,22.26,22.26,0,0,0,3.07-4.24c1.87-3.05,3.47-5.3,6.86-6.93a7.33,7.33,0,0,0-1.19-.59C430.85,485.51,430.14,485.12,429.83,485.29Z"/><path class="cls-6" d="M429.83,483.83a6.62,6.62,0,0,0-2.89,1.94,11.43,11.43,0,0,0-2.44,2.92c-1.81,2.82-3.19,5.84-5.17,8.58-.19.26,1,.4,1.11.23a57.21,57.21,0,0,0,3.25-5c2-3.4,3.76-5.89,7.43-7.82C431.15,484.66,430.19,483.63,429.83,483.83Z"/><path class="cls-6" d="M430.42,485.58a8.59,8.59,0,0,0-3.68,2.64,19.8,19.8,0,0,0-2.19,3.11,76.22,76.22,0,0,1-4.37,7c-.3.38,1.12-.18,1-.14a8,8,0,0,0,2.68-1.06,28,28,0,0,0,3.77-4.92,23.75,23.75,0,0,1,2.71-3.38,7.9,7.9,0,0,1,3.45-2.05s-1.64-.74-1.63-.73C431.85,485.92,430.8,485.38,430.42,485.58Z"/><path class="cls-6" d="M430.5,485a8.51,8.51,0,0,0-3.66,2.66,18.88,18.88,0,0,0-2.17,3.09,73.78,73.78,0,0,1-4.39,7c.07-.08,2.75-.33,2.81-.34.67-.12,2.16-.16,2.75-.64,1.8-1.47,2.89-3.39,4.34-5.18a20.16,20.16,0,0,1,2-2.24,7.48,7.48,0,0,1,3.39-1.85c-.05,0-2.45-1.4-2.46-1.4C432.85,486,430.93,484.72,430.5,485Z"/><path class="cls-6" d="M430.51,485.25a8.51,8.51,0,0,0-3.66,2.66,19.6,19.6,0,0,0-2.17,3.1,72.51,72.51,0,0,1-4.35,7c-.28.35,1-.1.9-.07a7.12,7.12,0,0,0,2.44-.87,28.71,28.71,0,0,0,3.75-5,24.16,24.16,0,0,1,2.71-3.41,8,8,0,0,1,3.46-2.09c.06,0-1.52-.81-1.48-.8C431.86,485.67,430.85,485.07,430.51,485.25Z"/><path class="cls-6" d="M429.53,485.52a9.55,9.55,0,0,0-3.82,2.93,18.62,18.62,0,0,0-2.22,3.29,85,85,0,0,1-4.43,7.48c-.16.23.62.17.74,0a77.15,77.15,0,0,0,4.28-7.31,17.66,17.66,0,0,1,2.15-3.19,9.46,9.46,0,0,1,3.69-2.85C430.23,485.69,429.69,485.42,429.53,485.52Z"/><path class="cls-6" d="M396.6,536.54a18.5,18.5,0,0,0-.64,6.54,36.56,36.56,0,0,0,1.13,6.89c0,.09,2-1.51,2-1.47.17-.15,1.81-1.28,1.76-1.7a30.31,30.31,0,0,1-.52-6.23,17.38,17.38,0,0,1,1-5.85s-2.43.78-2.4.77C398.68,535.57,396.68,536.12,396.6,536.54Z"/><path class="cls-6" d="M396.73,537.19a18.68,18.68,0,0,0-.66,6.57,36.24,36.24,0,0,0,1.11,6.94s1.72-1.65,1.69-1.62c.21-.23,1.54-1.36,1.48-1.83a31.4,31.4,0,0,1-.58-6.35,18.07,18.07,0,0,1,1-6l-2.1,1C398.41,536.08,396.82,536.73,396.73,537.19Z"/><path class="cls-6" d="M395.22,536.45a27.71,27.71,0,0,0-.5,5,41.13,41.13,0,0,0,1.3,8.88c.05.2.8-.11.75-.37a32.06,32.06,0,0,1-.69-13.66C396.13,536,395.24,536.27,395.22,536.45Z"/><path class="cls-6" d="M395.3,538.75a19.33,19.33,0,0,0-.58,6.73,36.74,36.74,0,0,0,1.24,7.07c.07.29,1.11-.74,1.06-1a36.63,36.63,0,0,1-1.17-6.89,20,20,0,0,1,.64-6.58C396.53,537.84,395.35,538.46,395.3,538.75Z"/><path class="cls-6" d="M396.45,537.46a18.84,18.84,0,0,0-.64,6.6,36.26,36.26,0,0,0,1.12,6.94l2.09-2c.23-.24,2-1.72,1.88-2.24a30.57,30.57,0,0,1-.49-6.26,17.78,17.78,0,0,1,1.06-5.91c0,.09-2.54,1.31-2.58,1.33C398.58,536.05,396.56,536.93,396.45,537.46Z"/><path class="cls-6" d="M396.69,536.79a18.59,18.59,0,0,0-.65,6.55,36.51,36.51,0,0,0,1.12,6.9c0,.06,2-1.71,2-1.67.2-.19,1.86-1.44,1.8-1.9a30.13,30.13,0,0,1-.49-6.22,17.16,17.16,0,0,1,1-5.85l-2.47,1C398.79,535.67,396.78,536.34,396.69,536.79Z"/><path class="cls-6" d="M395.8,538.07a18.59,18.59,0,0,0-.6,6.6,36.5,36.5,0,0,0,1.17,7,14,14,0,0,0,1.22-1.22c.19-.22,1.06-1,1-1.42a34.55,34.55,0,0,1-.82-6.64,18.37,18.37,0,0,1,.88-6.12c0-.06-1.52.77-1.5.76C396.88,537.21,395.87,537.66,395.8,538.07Z"/><path class="cls-6" d="M395.65,537a27.65,27.65,0,0,0-.55,6.84,45.23,45.23,0,0,0,1.26,7c.07.35.87-.23.84-.39a25.06,25.06,0,0,1-.59-13.74C396.67,536.44,395.69,536.82,395.65,537Z"/><path class="cls-6" d="M396.28,538.06a18.9,18.9,0,0,0-.64,6.61,36.78,36.78,0,0,0,1.13,7s1.57-1.76,1.56-1.75c.22-.28,1.39-1.44,1.31-1.93a32.54,32.54,0,0,1-.65-6.46,17.55,17.55,0,0,1,1-6s-1.91,1.13-1.94,1.15C397.73,536.88,396.38,537.57,396.28,538.06Z"/><path class="cls-6" d="M396.5,537.13a18.68,18.68,0,0,0-.65,6.57,36.87,36.87,0,0,0,1.13,6.92s2.12-1.9,2.09-1.87c.21-.21,1.94-1.59,1.88-2.08a30.28,30.28,0,0,1-.49-6.23,17.6,17.6,0,0,1,1.05-5.88c0,.05-2.56,1.14-2.58,1.15C398.66,535.85,396.59,536.63,396.5,537.13Z"/><path class="cls-6" d="M396.46,537.72a18.79,18.79,0,0,0-.65,6.59,37.51,37.51,0,0,0,1.14,7c0,.06,1.4-1.51,1.38-1.48.2-.25,1.2-1.22,1.13-1.66a33.84,33.84,0,0,1-.69-6.5,17.58,17.58,0,0,1,1-6s-1.72.92-1.72.92C397.73,536.73,396.54,537.28,396.46,537.72Z"/><path class="cls-6" d="M395.4,539a19.25,19.25,0,0,0-.49,6.72,36.33,36.33,0,0,0,1.27,7.1c.07.31.94-.53.89-.74a37.59,37.59,0,0,1-1.24-7,19.93,19.93,0,0,1,.45-6.62C396.33,538.26,395.44,538.81,395.4,539Z"/><path class="cls-4" d="M178.5,153.4c-44,30.27-50.91,85.33-50,95a153,153,0,0,0,4,30h0c4.19,15.71,8.36,18.12,15,38a174.37,174.37,0,0,1,8,33c1.82,13.36.45,16,2,29a158.92,158.92,0,0,0,8,34c3.86,10.49,12.25,28.59,31,47l34,47a193.94,193.94,0,0,1,28,26c7.33,8.33,10,12.92,18,20,7.34,6.52,14,12.47,24,16,19.22,6.82,44.09,2.3,57-11,1.89-1.94,3.25-3.36,4.65-4.89,3-3.3,5.11-5.82,5.35-6.11,2.72-3.24,14-12.53,43-34l30-32,7.8-8.36a36.61,36.61,0,0,0,9.25-10.41c7.1-12.12,4.81-25.39,3.95-31.23-2.21-15-3.22-36.61-1-70-2.72-1.15-6.53-2.82-11-5-9.24-4.49-20.6-10-32-19a140.62,140.62,0,0,1-23-24c-24.57-33.23-25.05-77.6-25-87-4.16-12.78-12.52-32.42-30-50C301.46,137.13,229.78,118.13,178.5,153.4Z"/><path class="cls-7" d="M258.65,341.74c0,11.71.56,23.4.8,35.1.07,3.33.12,6.66.12,10a.5.5,0,0,0,1,0c0-11.7-.56-23.38-.81-35.07q-.11-5-.11-10a.5.5,0,0,0-1,0Z"/><path class="cls-8" d="M253.79,326.4c0,10.17.37,20.35-.06,30.52a141.07,141.07,0,0,1-1.41,15.23c-.79,5.16-2,10.23-3.08,15.34s-2,10.32-3,15.49c-.39,2.09-.76,4.16-1.35,6.21-.54,1.83-1.15,3.64-1.73,5.45-1.08,3.39-2.17,7-1.78,10.6a12.3,12.3,0,0,0,5.7,8.83A32.11,32.11,0,0,0,258,438.66a39.43,39.43,0,0,0,11.61,1c.86-.06,1.71-.16,2.57-.3.63-.1.36-1.06-.27-1a37.56,37.56,0,0,1-22.46-4.07c-3.23-1.83-6.1-4.37-6.88-8.15-.7-3.45.29-7.06,1.3-10.34a97,97,0,0,0,3.06-10.9c1-5.1,1.91-10.18,2.93-15.26s2.26-10.07,3.13-15.14a134.6,134.6,0,0,0,1.64-14.7c.58-9.89.29-19.79.22-29.68,0-1.26,0-2.51,0-3.77a.5.5,0,0,0-1,0Z"/><path class="cls-9" d="M176.5,335.4c-1.32-6.22,9.53-14,18-17,12.72-4.45,25.8,0,31,4,.09.07,1,.78,2.24,1.78a57.62,57.62,0,0,1,5.76,5.22c2.81,3,4.24,4.57,4,6-.43,2.54-5.06,3.74-11,5-14.17,3-21.25,4.51-27,4C195,344,178,342.53,176.5,335.4Z"/><path class="cls-9" d="M373.5,298.4c-1.06-4.45-10-5.7-19.21-7-15.92-2.24-33.33.55-35.29,7-.29.94-1.49,6-3,6a2.36,2.36,0,0,0-1,0,2.48,2.48,0,0,1-.24.64,2.1,2.1,0,0,1-.27.54,2.42,2.42,0,0,1-.25.83,2.77,2.77,0,0,1-.49.85,21.26,21.26,0,0,0-.82,3.15c-.83,5-.27,7.11,0,7.92,0,0,0,.07,0,.08.85,2.24,6.33,2.15,11.09,2,12.7-.38,19-.75,20.17-1C358.76,316.17,375.09,305.06,373.5,298.4Z"/><path class="cls-10" d="M181.5,334.4c-.23-2.46,1.77-5.27,3-7a20.74,20.74,0,0,1,7-6c12.59-6.91,26.65-2.22,29.73,0,.15.11.66.49,1.27,1a10.74,10.74,0,0,1,3.88,5.44c0,.12.08.32.12.56a9.78,9.78,0,0,1-1.41,6.32,21.57,21.57,0,0,1-9.59,8.68C202.3,349.45,182.19,341.73,181.5,334.4Z"/><path class="cls-9" d="M230.5,327.4q-1,6-2,12"/><path class="cls-11" d="M232.5,332.4c.6-5.41-6.54-10.1-8-11-11.91-7.37-27.35.82-34,7-2.19,2-3,3.49-3,5,.11,4.87,9.3,8.84,16,10C216,345.56,231.65,340,232.5,332.4Z"/><path class="cls-10" d="M367.5,301.4c0-5.64-5.54-9.66-6-10-11.23-8.09-33.62-.77-36,11-1.05,5.21,2,12.11,7,15a18.23,18.23,0,0,0,9,2,20.5,20.5,0,0,0,6-1C348.55,318.08,367.55,311.92,367.5,301.4Z"/><path class="cls-11" d="M362.5,299.4c-4.88-10.16-25.6-14-36-5-4.62,4-8.7,11.89-6,18,2.08,4.71,7.52,6.5,9,7,1.17.39,4.84,1.49,12,0,3.18-.66,20.48-4.25,22-14A10.35,10.35,0,0,0,362.5,299.4Z"/><path class="cls-9" d="M313.69,313.62a.5.5,0,0,0,0-1,.5.5,0,0,0,0,1Z"/><path class="cls-9" d="M313.23,313.69s0,.07,0,.1l0-.13a2.21,2.21,0,0,1-.05.25,1.58,1.58,0,0,0,0,.38.41.41,0,0,0,0,.19.53.53,0,0,0,.27.27.41.41,0,0,0,.19,0,.55.55,0,0,0,.36-.15l.07-.1a.45.45,0,0,0,.07-.25,1.21,1.21,0,0,1,0-.19l0,.13c0-.18.07-.36.08-.54a.41.41,0,0,0,0-.19.31.31,0,0,0-.11-.16.36.36,0,0,0-.16-.11.41.41,0,0,0-.19,0,.53.53,0,0,0-.36.15.5.5,0,0,0-.14.35Z"/><path class="cls-12" d="M237.49,472a60.8,60.8,0,0,0,19.62,23.1c2.92,2.06,21,14.33,45.32,10.59,29.86-4.59,43.82-29.33,45.35-32.17,7.39-6.76,11.36-10.69,13.64-13.06.45-.47,1.51-1.57,3-3,2.91-2.77,7.05-8.12,7.05-9.16-1.33.7-4.7,2.84-5.26,3.29a18.42,18.42,0,0,1-2.37,1.53c-1.8,1.08-3.38,1.93-3.38,1.93s1.31-.68,3-1.64c3.78-2.12,8.1-4.82,8-5s-6.79,4.47-15.2,7.33c-8.74,3-15.79,2.24-25,2.72s-31.5.44-34,2a15.81,15.81,0,0,1-4.12,2c-5.44,1.66-9-.72-14.43-1-3.24-.17-4.87.53-12.37,3-5.14,1.69-12.76,4.14-22.68,7Z"/><path class="cls-13" d="M263.51,492.41c.5-3.58,20.73,4.29,54.84-2.19,9.42-1.79,15.71-3.88,16.13-2.19.66,2.65-13.28,14.41-29,17.52C283.24,509.94,263,496.05,263.51,492.41Z"/><path class="cls-13" d="M242.5,473.4c-.05-.2,2.69-.94,11-4,1.16-.42,1.68-.62,2.29-.85,10.29-3.81,15.43-5.72,19.71-6.15,9.4-.95,17,3.86,17,4a45.2,45.2,0,0,0-10-2,43.1,43.1,0,0,0-13,1c-5.7,1.33-5.84,2.61-13,5C249,472.89,242.58,473.71,242.5,473.4Z"/><path class="cls-12" d="M275.62,482.76c-4,.18-12.77.33-14,4.1-.4,1.26.11,2.67,1,5.12a20.18,20.18,0,0,0,4,7.17c10.46,11.9,32.7,6,39.93,4.1,14.67-3.89,29.69-13,31.95-20.49,2.4-8,3.26-9.76,5-13.31.67-1.36,1-2.05,1-2.05-27.09,6.74-28.08,7-28.95,7.17C291.3,480,279.18,482.61,275.62,482.76Z"/><path class="cls-12" d="M303.5,481.4c-14.59,4.68-21.88,7-27,6-1.47-.29-4.36-1-5,0s1.41,2.49,1,5c-.25,1.53-1.14,1.87-1,3,.18,1.44,1.78,2.35,3,3,4.07,2.18,6.52,3.49,9,4,15.27,3.14,39-10,39-10,3.21-1.78,25.85-14.31,24-19-1.11-2.82-11.38-3.5-18,1-4.84,3.29-4.86,7.4-9,8-3.85.56-6.07-2.67-12-2A19.18,19.18,0,0,0,303.5,481.4Z"/><path d="M286.5,429.4c-.44-.56,3.84-4.46,8.84-6.94.84-.42,1.51-.7,2.21-1,4.14-1.74,9.67-3.46,9.94-3C308,419.48,287.39,430.54,286.5,429.4Z"/><path d="M249.5,426.4c.21-.85,5-1.06,9,1,3,1.54,5.44,4.3,5,5-.6,1-6.58-1.86-9-3C251.34,427.92,249.36,427,249.5,426.4Z"/><path class="cls-13" d="M294.5,463.4c-.08-.2,1.82-1.26,4-2a20.25,20.25,0,0,1,5-1c16-1.09,31-1,31-1s3.1.11,4.06.13c1.37,0,3,0,9.94-1.13,4.6-.72,6-1,6-1a73.25,73.25,0,0,1-18,3c-4.57.22-3.94-.23-10,0-8,.31-8.72,1.08-15,1-4.62-.06-5.64-.5-9,0C297.94,462.08,294.6,463.66,294.5,463.4Z"/><path class="cls-12" d="M350.5,462.4c.63.12,1.87.37,2,1,.28,1.34-4.51,3.37-6,4-5.41,2.3-8.27,2.41-15,4-2.1.5-6.07,1.67-14,4-5.82,1.71-5.44,1.66-10,3-11.44,3.36-15.8,4.27-21,4-3.1-.16-6.36-.32-7-2-1-2.64,5.05-7.5,9-10,7.57-4.77,15.26-5.8,25-7,8.12-1,6.25,0,14-1C327.5,462.4,341,460.67,350.5,462.4Z"/><path class="cls-12" d="M293.5,471.4a52.43,52.43,0,0,1,14-5c13.66-2.68,33.65-4.25,34-2,.14.87-2.77,1.51-13,6-11.12,4.89-10.78,5.5-15,7-12.9,4.58-27.42,2.89-28,0C285.17,475.78,289.24,473.64,293.5,471.4Z"/><path class="cls-14" d="M237.5,472.4c.24-.33,5.11,4.05,13,7,6.95,2.6,12.75,2.78,20,3,7.56.23,12.78.39,19-2,3.64-1.4,3.73-2.17,7-3,6.84-1.72,9.24,1,15-1,4.38-1.49,4-3.38,8-4,3.77-.57,4.89,1,9,0a53.92,53.92,0,0,0,6-2c0-3.17,3.35.44,6,0,.88-.14,1.74-.39,8-4,2.82-1.62,4.25-2.45,5-3a27.72,27.72,0,0,0,6-6l1-1,2-2c2.69-2.23,4.53-3.41,5-3a1.63,1.63,0,0,1,0,.59c-.48,2-4.75,2.39-5,2.41a40.31,40.31,0,0,1-5,8,21.19,21.19,0,0,1-5,5c-.88.59-1.83,1.09-8,3-5.92,1.83-6.76,1.9-9,3-3.08,1.52-2.59,1.94-5,3-4.21,1.87-5.73.61-11,2-4.93,1.3-4.56,2.66-8,3-4.53.45-5.38-1.89-10-2-4.3-.1-4.94,1.89-12,4a50.46,50.46,0,0,1-12,2,59.73,59.73,0,0,1-15-1c-4.89-.86-10.13-1.78-16-5C241.09,476.44,237.29,472.7,237.5,472.4Z"/><path d="M311.73,311.87a44,44,0,0,0-4.23,9.53Z"/><path d="M237.91,334.12l-.63-.39c-.06-.22-.11-.41-.17-.61a2.7,2.7,0,0,1-.27-.39,2.93,2.93,0,0,1-.45-.54,11.39,11.39,0,0,0,.54,2.13,1.63,1.63,0,0,1,.2,1,2.08,2.08,0,0,1-.77,1.19,11.16,11.16,0,0,1-1.75,1.39l-2.93.62-6.45,2.32,6.53-1.26a9.12,9.12,0,0,0,4.81-2.09,2.22,2.22,0,0,0,2.93-.62,1.87,1.87,0,0,0-.41-2A11.16,11.16,0,0,0,237.91,334.12Z"/><path d="M301.5,314.4c-.25-.11,1.86-7.43,7-15a46.21,46.21,0,0,1,10-11c10.38-7.93,22.36-8,27-8,20.62-.08,35.33,12.3,35,13s-11.76-7.53-30-9c-6.35-.51-24.63-2-37,9C303.85,302,301.82,314.54,301.5,314.4Z"/><path class="cls-15" d="M373.5,301.4c.42.47-8.25,13.74-22,17-4.38,1-7.71.69-17,3-3.24.81-5,1.39-8.42,2-7.35,1.35-13.54,1.33-13.58,1-.07-.7,25.4,1.19,48-13C368.66,306.28,373.22,301.09,373.5,301.4Z"/><ellipse class="cls-16" cx="345.82" cy="302.88" rx="13.63" ry="13.48" transform="translate(-80.93 473.79) rotate(-63.04)"/><ellipse class="cls-17" cx="345.5" cy="301.9" rx="11" ry="11.5"/><circle class="cls-17" cx="345.5" cy="301.4" r="10"/><path class="cls-15" d="M343.83,236.7A378.65,378.65,0,0,0,276.5,279c1.51,5.6,4,10.21,8.21,11.72,6.07,2.19,12.61-3.19,36.68-21,17.09-12.66,22.89-16.68,32.06-18.58a51.67,51.67,0,0,1,20.3,0c1.6-4.51,5.29-16.3,0-20.92C368.69,225.81,357.69,230,343.83,236.7Z"/><path d="M371.5,294.4l9-14-14.76,11.11,9.75-14.11-16,11,8.24-13.92L350.5,284.4l8-13-13,9-.5-9-6.86,15.74L337,271.4l-4.6,15.74-3.89-12.08-4.17,16.45-2.21-11.11-3.54,16-3.75,8.46a.85.85,0,0,1-.06.17,2.23,2.23,0,0,1-.21.44l-.06.14a2.7,2.7,0,0,1-.25.79,2.5,2.5,0,0,1-.46.81l-2.06,4.66a43.13,43.13,0,0,1,2.49-3.8A39.45,39.45,0,0,1,329.5,295.4c14.09-6.53,31.15-4.16,44,6l9-16Z"/><path d="M312.7,312.43s-.05,0-.11.67-.11,1.36-.18,2.72l-.56.52a11.62,11.62,0,0,0-1.05,1,1.88,1.88,0,0,0,0,2,2.35,2.35,0,0,0,3.14,0,9.83,9.83,0,0,0,5.38,1.09l7-.12-4.78-1h-4a10.34,10.34,0,0,1-3.56-1,2,2,0,0,1-1-1,1.65,1.65,0,0,1,0-1A7.39,7.39,0,0,0,312.7,312.43Z"/><path d="M170.5,321.4a32.71,32.71,0,0,1,13-11c25.66-11.47,61.07,18.87,61,19s-24.29-22.21-53-17A53.23,53.23,0,0,0,170.5,321.4Z"/><path class="cls-15" d="M234.61,339.4c.07.32-4.52,1.57-6.11,2-21.41,5.81-32.15,8.72-42,4-6.41-3.07-10.42-8.4-10-9s6,4.75,15,7c5.83,1.46,13.63.33,29-2C228.52,340.19,234.53,339,234.61,339.4Z"/><ellipse class="cls-18" cx="207" cy="327.4" rx="15" ry="15.5"/><circle class="cls-17" cx="207" cy="327.9" r="12.5"/><circle class="cls-17" cx="207" cy="327.9" r="10.5"/><path class="cls-15" d="M133.52,291.51c-.66,4.35,3.52,9.34,10,12.39a23.17,23.17,0,0,1,10.93-10.5c5.82-2.49,11.43-1.57,14.66-1,12.84,2.28,31.1,5.55,53.4,10a16.73,16.73,0,0,0-3-11,15.76,15.76,0,0,0-4.33-4c-33.88-7.12-58.91-10-62.82-9a43.46,43.46,0,0,0-9.42,4C138.5,285,134.11,287.6,133.52,291.51Z"/><path d="M176.5,336.4c1.58-3.46,6.84-13.72,18-18,14.64-5.61,33.63,1.28,45,18l-29-34,3.41,12L203,302.4l4.52,9.71-12.57-14.37,5.53,13.88L188,297.74l3.48,14.66-9-12,1,10-7-7.16,5.2,13.83-11.2-9.26,7,15.27-10.19-8.68,6.33,15-15.24-15,9.09,18-12.83-9.32,5.83,10.32c9,4,4,6,4,6Z"/><circle cx="208.5" cy="327.4" r="4"/><circle cx="344.5" cy="302.4" r="4"/><circle class="cls-19" cx="214" cy="324.9" r="1.5"/><ellipse class="cls-19" cx="204.5" cy="327.9" rx="1" ry="1.5"/><circle class="cls-19" cx="348" cy="299.9" r="1.5"/><ellipse class="cls-19" cx="341.5" cy="303.9" rx="1" ry="1.5"/><polygon class="cls-20" points="242.5 829.4 203.27 862.55 187.88 859.38 231.5 824.4 118.36 824.4 109.49 819.35 263 819.35 242.5 829.4"/><path class="cls-21" d="M51,886.9c2-1.7,13,12.54,37,29,30.58,21,52.8,25.35,52,28-1,3.18-34.51,2.3-61-18C59.21,910.74,48.72,888.84,51,886.9Z"/><path class="cls-21" d="M61.5,878.4c1.77-2.43,15.43,6.5,39,17,33.24,14.82,52.48,17.75,52,20-.58,2.71-28.47-1-52-8-7-2.06-16.48-5.27-26-13C67.82,889,60,880.43,61.5,878.4Z"/><path class="cls-22" d="M68.5,864.4c.4-2.66,20.34-1.93,32-1,44,3.51,84.94,18.9,84,23s-44.49-2.67-70-8C97.85,874.92,68,867.71,68.5,864.4Z"/><ellipse class="cls-23" cx="436.67" cy="737.41" rx="2.81" ry="182.38" transform="translate(-415.57 647.19) rotate(-53.32)"/><path class="cls-23" d="M25,648.9c.22-.15,13,14.3,23,32,30.79,54.43,17,118,17,118l0-.54c1-12.82-2-35.31-2-49.46,0-.93,0-1.15,0-2a113,113,0,0,0-2-20,157.33,157.33,0,0,0-10-32,201.82,201.82,0,0,0-10-20C32.28,659.13,24.82,649,25,648.9Z"/><path class="cls-23" d="M40,725.9c.31-.49,4.71.79,9,4,12.93,9.7,14.09,29,14,29a35.52,35.52,0,0,0-5-15C50.94,731.91,39.49,726.73,40,725.9Z"/><path class="cls-23" d="M11,937.9s12.59-7.52,18-22c7-18.8-1.61-39.06-2-39a97.76,97.76,0,0,1,1,15,102.38,102.38,0,0,1-2,17c-1,5.91-1.57,8.87-2.5,11.5A40.43,40.43,0,0,1,11,937.9Z"/><path class="cls-23" d="M63.5,819.4c.44.57-6.27,5.09-13,13-9,10.57-10.09,17.83-18,35s-17.18,32.4-18,32,7.41-14.65,18-42c4.18-10.78,6.63-18.18,14-26S63,818.77,63.5,819.4Z"/><path class="cls-21" d="M43.5,893.4c-1.43-.53-5.66,7.53-8,12-4.61,8.79-9,17.33-10,29-.24,2.73,0,2.37,0,10,0,24.83-2.39,33.17,2,36,2.82,1.83,6.61.17,10-1,24.63-8.52,49.69,1,50-1,.35-2.18-32.2-2.34-42-21-3.47-6.61-4.6-16.5-5-20a92.93,92.93,0,0,1,0-19C41.71,902.81,45,894,43.5,893.4Z"/><path class="cls-23" d="M17.5,587.4c-1.6-.14-2.67-10.17-1.17-19.4a55.27,55.27,0,0,1,2.17-8.6c3.56-9.85,15.13-25.86,33-29,22.17-3.89,40.74,14.39,40,16s-17.8-9.84-39-5c-3.9.89-12.58,3-20,10C17.73,565.37,19.88,587.62,17.5,587.4Z"/><path class="cls-23" d="M98.5,547.4c.19-1.72,11.66-1.16,14,0l2,1h0c8,.72,8,1,8,1,0,.62-4.76,2-10,2C105.57,551.36,98.34,548.8,98.5,547.4Z"/><path class="cls-24" d="M90.5,553.4c-7.52-7.8-19.63-6.68-27-6-6.65.62-17.1,1.59-25,9s-5.27,13.6-12,54c-2,12.22-2.69,14.16-1,16,10.42,11.41,69.18-25.46,72-46a41.71,41.71,0,0,0,0-10C97.09,567.42,96,559.06,90.5,553.4Z"/><path class="cls-25" d="M76.5,795.4c2.35,1.39,40.48-36.81,41-88,.24-23.68-7.62-45.3-10-45s2.3,24.16-2,55C98.7,766.18,74.54,794.25,76.5,795.4Z"/><path class="cls-23" d="M587.5,854.4c.75-.44,8.49,9.38,15,22a129.85,129.85,0,0,1,12.23,35.86c6.91,37.4-2.8,70.2-3.23,70.14-.27,0,2.79-13.28,2-34a214.68,214.68,0,0,0-4-33,203.75,203.75,0,0,0-5-21C597.16,870,586.59,855,587.5,854.4Z"/><path class="cls-26" d="M301.5,658.4c10.44-6.81,31,27.68,128,96,35.2,24.79,77,51.59,75,55-1.09,1.88-13.21-7-31-9-37.17-4.09-54.28,27.12-78,28C341.18,830.42,280.27,672.25,301.5,658.4Z"/><path class="cls-27" d="M282.5,838.4c-1.79,3.23,15.18,12,35,33,30.29,32.12,36.8,60.9,48,59,6.46-1.09,6.62-11.06,14-25,19.61-37,60.17-46.06,58-52-2-5.51-34.22,9.45-77,6C315.51,855.77,285,833.89,282.5,838.4Z"/><path class="cls-4" d="M431.5,490.4c-.17,0-.54,16.51-2,29-6.62,56.53-43.65,98.22-44,98a426.53,426.53,0,0,0,27-50c13.84-30.09,16.31-43.81,17-48C432,504.31,431.66,490.41,431.5,490.4Z"/><path class="cls-4" d="M336.5,579.4c1.94-1,7.58-3.7,14-2,8.44,2.24,14.79,11.13,15,22Z"/><path class="cls-28" d="M616.25,922.56A165.52,165.52,0,0,0,612,901.9c-3.6-12.91-11.27-33.65-29-56l.72-7.5L601,815.9,594.68,796l4.82-9.64,8,13V763.52l6,19.88,6-21,4,18,11-33,8,14V739.85L659.59,753,651.5,704.4,596,584.5V569.9a100.26,100.26,0,0,1,41,20c38.27,31.76,45.12,90,36,130-4.42,19.37-9.44,20.67-20,59-8.07,29.27-6.34,32.88-14,52-6.83,17.06-12.08,23.88-15,41a113.27,113.27,0,0,0-1,31,116.31,116.31,0,0,0,5,23c3.71,12.47,6.19,31.92,0,62l-15.13-.5c.29-1.11.74-2.85,1.22-5A166.88,166.88,0,0,0,616.25,922.56Z"/><path class="cls-29" d="M611,577.9c2.31-2.46,17.94,7,30,19,3.77,3.75,13.56,14.17,22,35,15.21,37.55,12.55,74.7,10,75-1.55.18-1.9-13.42-10.5-37.5-1.57-4.38-9.1-25.06-25-51C621.22,591.85,608.75,580.3,611,577.9Z"/><path class="cls-29" d="M602,862.9c.26-.37,2.8,1.48,8,4,4.87,2.36,10.93,4.76,11,7,0,.26,0,.88,0,2,.07,1.45.23,1.82,0,2-.5.4-2.44-.49-3-2-.48-1.28.41-2,0-3-.52-1.26-2.3-1.13-5-2a22.28,22.28,0,0,1-7-4C604.14,865.48,601.74,863.28,602,862.9Z"/><path class="cls-29" d="M603.5,876.4a2.92,2.92,0,0,1-1-4c.48-.64,1.15-.63,3-1,3.15-.63,2.82-1,4-1a7.6,7.6,0,0,1,6,3c1.27,1.77.56,2.8,2,4,1,.86,1.9.78,3,2,.16.18,1.34,1.51,1,2s-2.49-1.06-6-1c-1.5,0-1.93.35-3,0a8.53,8.53,0,0,1-3-2c-.61-.62-.59-.79-1-1-.78-.39-1.44-.1-3,0a14.58,14.58,0,0,1-2,0"/><path class="cls-30" d="M243.5,30.4c-32.34,7.26-48.89,10.72-65,19-52.36,26.92-70.84,87.9-83,128-24,79-14.42,150.25-4,194a174.65,174.65,0,0,1,32,53c29.45,77.76-8.52,151.41-17,167l21.92-23.17L112.5,646.4q9.15-18.9,12-18,6.27,2-18,100L128.42,670,118.5,754.4s14.91-47,14.95-45-11.95,73-11.95,73l7.62-21.66L140.5,728.4l-2,31c2.93-8.82,6.44-18.35,8-18,2,.46-1.39,16.92-1,30,.49,16.72,7.52,39.64,36,67L170.5,812l17,18.93L178,797l25.5,41.43-22-63.51L204,799.34l-12-45.75,40.54,47.33-14-29.19,23,22.09-4-15.78,12,11-5-17.35,12,10.25-12-22.08,34.89,15c-21.78-18.1-25.71-23.3-24.89-24.49s6.89,2.54,17,4c9.32,1.35,20.51,1.27,21-1,.58-2.71-14.94-4.67-29-15-21.49-15.79-29.44-43.7-26-46,2.48-1.66,10.49,10.35,36,33,20.66,18.35,39.92,32.23,41,31s-19.33-15.21-35-42c-16.54-28.26-19.92-57.36-18-58,2.17-.72,13.88,33.94,17,33,2.32-.69-1.28-20.73-9-54l23,29.06-7-104.45a98.17,98.17,0,0,1-9-7.61c-3.39-3.25-4.92-5.2-15-17-5.11-6-5.84-6.8-7-8-4.65-4.82-43.91-49.53-58-68-17.16-22.48-18.84-23.41-23-30-8.73-13.83-17.79-35.79-17.07-70.48-1.23-11.24-3.22-28.89-5.93-50.52-9.77-77.88-15.13-97.21-3.92-120.43C158,164.26,178.9,152.65,186.5,148.4c45.4-25.33,99.51-10.18,132,12,8.64,5.9,46.09,31.47,51,69,1.16,8.83.1,15.18,3,30,1.38,7,6.14,28.67,18,48,21.27,34.66,57.27,48.68,70,53a81.7,81.7,0,0,0-2,13,111.76,111.76,0,0,0,0,13c.32,8,.9,13.91,1,15,1.59,17.36-5.44,38.45-16.64,72.06h0a117.27,117.27,0,0,0-6.36,10.94c-.53,1.05-.91,1.81-1,2-1.88,3.86-9.08,17.3-27,50l15-14-17,31,11-13-14,28,11-14.54-19,35.61,17-16.07,4,60c2.4-12.49,4-15,5-15,1.46.08,1.7,5.59,4,12a46.53,46.53,0,0,0,12,18l12,41-3-30,14,48.78-3-26.78,21,37V699.53l21,51.87V726.7l17,26.7-6-28s26.22,32.78,27,32.18c0,0,0-.12,0-.18-10.24-30.75-28-50-28-50a54.63,54.63,0,0,1,12,6,55.47,55.47,0,0,1,15,15,58,58,0,0,1,8,18c5,18.32,1.48,35.29-1,44l12-10-9,23,13-7-3,15q-.5,7.5-1,15l6.21-9.32,3.79-5.68,7,9,8-23,7,13,12-24,8,13V763.52l6,19.88,6-21,4,18,11-33,8,14V739.85l18,13.55a90.7,90.7,0,0,0-5-39c-1.87-5.12-4.16-9.92-4-10,.56-.26,26.32,57.07,29,56,1.92-.76-8.38-31.48-21-67-2.85-5.11-8.39-15.18-15-28-32.42-62.88-63.14-122.14-70-200-1.59-18.07-.34-16.14-2-30-6-50-21.72-70.81-36-129-4.35-17.74-3.1-16.68-8-39-15.91-72.51-25.58-116.59-52-156-5.6-8.35-59.83-86.87-141-93C306.65,16.22,275.3,23.26,243.5,30.4Z"/><path class="cls-23" d="M287.5,565.4c.6-.5,3,2.46,7,5,7.94,5.08,14.4,3.62,23,5,15.94,2.57,26.09,12.84,26,13s-11.59-8.55-26-10l-10-1c-8.91-.78-10.55-.62-13-2C289.21,572.44,286.72,566.05,287.5,565.4Z"/><path class="cls-4" d="M362.26,407.24l-4-3.28a.5.5,0,1,0-.71.7l4,3.28a.5.5,0,1,0,.71-.7Z"/><path class="cls-31" d="M289.5,537.4c-1.49,1.55-5.85,6.09-5,11,1.64,9.47,21.79,15.67,38,13,15.6-2.56,32.57-14.16,31-22C351.16,527.74,306.73,519.48,289.5,537.4Z"/><path class="cls-31" d="M375.5,525.4c2,2.3,39.59-14.81,59-53,17.92-35.26,12.32-72.74,10-73-1.81-.2-1.38,22.37-13,51C411.43,499.87,373.43,523,375.5,525.4Z"/><path class="cls-31" d="M152.5,262.4c-3.52-8-14.39-35.35-4-65a72.72,72.72,0,0,1,18-29c2.77-2.69,11.74-10.94,29-17,18.38-6.45,71-19.13,117,10,32.83,20.78,47.06,53.16,46,54s-17-30.28-51-49c-6.74-3.71-70.62-37.61-119-1C144.9,198.4,152.14,259.71,152.5,262.4Z"/><path class="cls-31" d="M272.5,267.4c1.22,1,7.15-8,20-18,30-23.36,60.49-23.74,60-27-.45-3-27-7.43-50,6C280,241.52,270.63,266,272.5,267.4Z"/><path class="cls-31" d="M161.5,258.4c-13.45-13.79.17-64.93,34-85,52.76-31.29,135.5,24.41,133,34-.93,3.57-12.91-2.11-28,5-34.53,16.27-32.39,74.54-48,75-6.8.2-7-10.84-19-20C208,247.86,174.21,271.44,161.5,258.4Z"/><path class="cls-8" d="M318.47,423.08c-3.21,3.48-7.58,5.67-12,7.17a64.21,64.21,0,0,1-14.45,3c-2.38.24-4.78.37-7.17.39a.5.5,0,0,0,0,1,78.46,78.46,0,0,0,13.84-1.33,47.55,47.55,0,0,0,14.26-4.75,24.07,24.07,0,0,0,6.24-4.74c.43-.48-.27-1.18-.71-.71Z"/><path class="cls-29" d="M263.12,433.55c-6.48-1.09-11.38-5.64-16.88-8.84a29.59,29.59,0,0,0-5-2.33c-.61-.22-.87.75-.27,1,6.11,2.15,10.79,6.89,16.64,9.54a20.75,20.75,0,0,0,5.21,1.63c.63.11.9-.86.27-1Z"/><path class="cls-32" d="M419.5,348.4c-16.43-.28-17.79,26.8-50,48-6.5,4.28-16.37,8.3-16,14,.11,1.64,1.14,4.9,10,9s36.08,16.71,59,0c16.09-11.73,27.19-35.73,18-54C439.76,363.94,431.8,348.61,419.5,348.4Z"/><path class="cls-32" d="M168.29,384.4c1.23,8.2-.1,12.42,0,17,.19,10,7,17.74,9.88,21,8.49,9.71,28.35,22,44.49,12,16.38-10.16,19.29-35.59,10.88-44-7.39-7.38-18.71,3.29-41-4-12.47-4.07-22.5-11.82-25-9C166.56,378.46,167.63,380.05,168.29,384.4Z"/><path class="cls-31" d="M301.5,330.4c.38-1.65,16.75,6.09,38,0,25.49-7.3,35.81-28.15,41-25,4.7,2.86,2.59,23.83-10,34C347.83,357.72,300.85,333.21,301.5,330.4Z"/><path class="cls-31" d="M173.5,350.4a67.39,67.39,0,0,0,19,5c29.5,3.21,51-15,53-12,1.59,2.43-10.07,18-28,22C193.6,370.73,174.87,351.83,173.5,350.4Z"/><path class="cls-31" d="M318.5,506.4c-.35-1.06,9.47-2.87,19-11,7.86-6.7,7.71-11,16-22,9.88-13,21.29-21.66,22-21s-9.9,9.59-22,28c-7.23,11-9.66,17.27-18,22C327.52,506.93,318.82,507.38,318.5,506.4Z"/><path class="cls-29" d="M342.63,416.71a126.84,126.84,0,0,1,20.1,7.43c6.23,3,12.27,6.94,16.62,12.43a27,27,0,0,1,5,10.1.5.5,0,0,0,1-.26c-1.73-6.79-6.09-12.4-11.55-16.66-5.77-4.51-12.5-7.65-19.32-10.21-3.81-1.42-7.68-2.65-11.58-3.8a.5.5,0,0,0-.27,1Z"/><path class="cls-29" d="M241.22,426.33c-.28,3.61-2.5,6.8-4.65,9.57-2.4,3.1-5.1,6-7.29,9.25-3.93,5.87-4.82,13.64-3.17,20.44a17.79,17.79,0,0,0,6,9.94c.5.39,1.21-.32.71-.71-5.71-4.47-7.08-12.55-6.22-19.36a22.14,22.14,0,0,1,3.42-9.6c2.12-3.22,4.77-6.05,7.14-9.09s4.76-6.47,5.07-10.44c0-.64-1-.64-1,0Z"/><path class="cls-29" d="M373.42,430.54c-.18,3.42,1.3,6.37,2.71,9.38a21.73,21.73,0,0,1,1.74,5,27,27,0,0,1,.36,6.34c-.11,2.37-.4,4.72-.59,7.08-.06.64.94.64,1,0,.34-4.12,1-8.27.41-12.4a20.1,20.1,0,0,0-1.48-5.22c-.66-1.54-1.45-3-2.08-4.56a13,13,0,0,1-1.07-5.61c0-.64-1-.64-1,0Z"/><path class="cls-33" d="M332.89,569.28c9.12-1.66,17-4,23.63-10.83,5.94-6.1,11.13-12.51,17.85-17.84,13-10.3,27.82-18.29,38.38-31.35a164.45,164.45,0,0,1,22.3-22.63"/></g></svg>
