<svg xmlns="http://www.w3.org/2000/svg" xmlns:xlink="http://www.w3.org/1999/xlink" viewBox="0 0 1920 867"><defs><style>.cls-1{fill:#edf2f6;}.cls-2{fill:#d69077;}.cls-3{fill:#8c6239;}.cls-28,.cls-4{fill:#d7967a;}.cls-5,.cls-6{fill:#d69a81;}.cls-6{opacity:0.11;}.cls-7{fill:#d9967b;}.cls-8{fill:#c88a75;}.cls-9{fill:#efe7e3;}.cls-10{fill:#e3e7e3;}.cls-11{fill:#cee7e3;}.cls-12{fill:#d26f70;}.cls-13{fill:#d25065;}.cls-14{fill:#bc5065;}.cls-15{fill:#42210b;}.cls-16{fill:url(#Sky);}.cls-17{fill:#1b1464;}.cls-17,.cls-25{opacity:0.71;}.cls-18{fill:url(#Sky-2);}.cls-19{fill:#fff;}.cls-20,.cls-21,.cls-22,.cls-23,.cls-24,.cls-25,.cls-26,.cls-27{fill:#c5c9cb;}.cls-20{opacity:0.69;}.cls-21{opacity:0.7;}.cls-22{opacity:0.68;}.cls-24{opacity:0.2;}.cls-26{opacity:0.14;}.cls-27{opacity:0.09;}.cls-28,.cls-33{stroke:#e78c5f;stroke-miterlimit:10;stroke-width:0.75px;}.cls-29,.cls-32{fill:#d38c76;}.cls-30{fill:#513421;}.cls-31{fill:#db9a81;}.cls-32{opacity:0.5;}.cls-33{fill:none;}</style><linearGradient id="Sky" x1="1473.47" y1="-130.6" x2="1496.64" y2="-130.6" gradientTransform="translate(2997.29 205.99) rotate(180) scale(0.91 1)" gradientUnits="userSpaceOnUse"><stop offset="0" stop-color="#cce0f4"/><stop offset="0.06" stop-color="#c3dcf2"/><stop offset="0.17" stop-color="#a9d2ee"/><stop offset="0.31" stop-color="#80c2e7"/><stop offset="0.46" stop-color="#47acde"/><stop offset="0.57" stop-color="#1e9cd7"/><stop offset="0.87" stop-color="#0075be"/><stop offset="0.99" stop-color="#005b97"/></linearGradient><linearGradient id="Sky-2" x1="1446.84" y1="-80.81" x2="1470.78" y2="-80.81" gradientTransform="translate(1459.5 -1103.5) rotate(90)" xlink:href="#Sky"/></defs><g id="Layer_9" data-name="Layer 9"><path class="cls-1" d="M1853.82,865.11H1396l-.17-42.09-6.56,11.68V536.06a61.2,61.2,0,0,1,10-13c4.67-4.62,12-11.83,22-13.6,16.39-2.89,29.9,10.54,31.67,12.36l148,14.77c1.65.81,4.29,2.05,7.62,3.3a82.15,82.15,0,0,0,16.62,4.33c21.1,3.4,50.21,32.44,50.21,32.44,15.93,15.89,56,45.72,152.94,105l16.22,51L1831.3,750a13.16,13.16,0,0,0,.21,8.11,13.41,13.41,0,0,0,5.41,6.18c3.9,2.61,9.59,11.86,17.38,41.33a125.36,125.36,0,0,1,1.54,50.2C1855.27,859.07,1854.59,862.16,1853.82,865.11Z"/><path class="cls-2" d="M1717.71,477.44,1723.24,614l-60.5-48.59a105.82,105.82,0,0,0-22.4-15.45,107,107,0,0,0-14.68-6.18Z"/><path class="cls-3" d="M1717.61,476.48c1.53-2.46,2.84-5.14,4.38-7.66"/><path class="cls-3" d="M1718,476.74c1.55-2.51,2.85-5.15,4.38-7.67a.5.5,0,0,0-.86-.51c-1.53,2.52-2.83,5.17-4.39,7.67-.34.55.53,1,.87.51Z"/><path class="cls-3" d="M1717.66,476.79a5.37,5.37,0,0,0,.81-1.18,5.44,5.44,0,0,1,.71-1.08c.64-.67,1.52-1.07,2.22-1.67a.49.49,0,1,0-.7-.7,25.89,25.89,0,0,0-2.23,1.67c-.63.66-.89,1.58-1.52,2.25-.44.47.26,1.18.71.71Z"/><path class="cls-4" d="M1682.05,512.89c.45,0,.5,1.41,2.32,23.94,2.71,33.67,3.47,41.5,2.31,41.71-1.32.25-4.48-9.49-6.18-17C1674.81,536.4,1680.18,512.8,1682.05,512.89Z"/><path class="cls-5" d="M1544.59,454.2a.5.5,0,0,0,0-1,.5.5,0,0,0,0,1Z"/><path class="cls-6" d="M1711.9,475.89a5.25,5.25,0,0,0-2.47,1.85,9.93,9.93,0,0,0-2,2.79c-1.1,1.89-2.07,3.79-3.33,5.59,0,0,2.74.11,2.71.11.41,0,2.29.22,2.7-.19a33,33,0,0,0,3.17-3.81,9.45,9.45,0,0,1,4.16-3.24l-2.39-1.68C1714.3,477.22,1712.26,475.68,1711.9,475.89Z"/><path class="cls-6" d="M1712.28,476.61a5.35,5.35,0,0,0-2.49,1.81,10.18,10.18,0,0,0-2,2.74c-1.13,1.88-2.13,3.77-3.41,5.55l2.27-.17c.48-.06,1.83-.06,2.24-.47a37.13,37.13,0,0,0,3.27-4,9.93,9.93,0,0,1,4.24-3.36s-2-1.19-2-1.18C1714.18,477.42,1712.64,476.41,1712.28,476.61Z"/><path class="cls-6" d="M1711.05,474.82a5.76,5.76,0,0,0-2.62,1.93,11.49,11.49,0,0,0-2.15,2.92c-1.17,2-2.2,4-3.5,5.88-.07.1,1.1.48,1.24.3,1.3-1.77,2.36-3.68,3.65-5.45l1.42-1.85a9,9,0,0,1,3.5-2.6S1711.43,474.59,1711.05,474.82Z"/><path class="cls-6" d="M1710.65,476.94a5.83,5.83,0,0,0-2.51,2,11.2,11.2,0,0,0-2.06,3c-1.11,2-2.13,4.06-3.41,6-.17.25.82.2.94,0a49.72,49.72,0,0,0,2.72-4.69,11.62,11.62,0,0,1,1.88-2.93,6.28,6.28,0,0,1,3.07-3C1711.53,477.11,1710.81,476.84,1710.65,476.94Z"/><path class="cls-6" d="M1712.11,476.87a5.33,5.33,0,0,0-2.49,1.8,10.36,10.36,0,0,0-2.07,2.75c-1.13,1.88-2.15,3.77-3.44,5.56.05-.06,2.72-.3,2.76-.31.58-.1,2.2-.13,2.71-.61a32.34,32.34,0,0,0,3.28-3.83,9.62,9.62,0,0,1,4.21-3.2s-2.4-1.21-2.42-1.22C1714.39,477.7,1712.53,476.63,1712.11,476.87Z"/><path class="cls-6" d="M1712.1,476.24a5.24,5.24,0,0,0-2.48,1.83,10.26,10.26,0,0,0-2,2.76c-1.1,1.88-2.09,3.78-3.35,5.56H1707c.47,0,2.28.11,2.72-.32a32,32,0,0,0,3.19-3.77,9.45,9.45,0,0,1,4.15-3.2l-2.39-1.56C1714.47,477.43,1712.47,476,1712.1,476.24Z"/><path class="cls-6" d="M1711.35,476.89a5.36,5.36,0,0,0-2.51,1.85,10.48,10.48,0,0,0-2.07,2.82c-1.11,1.9-2.1,3.81-3.38,5.61-.23.32.8,0,.74,0,.46-.11,1.67-.27,2-.65a26.65,26.65,0,0,0,2.27-3c1.57-2.46,2.62-4.23,5.44-5.72.11-.06-1.23-.62-1.19-.6C1712.39,477.11,1711.65,476.71,1711.35,476.89Z"/><path class="cls-6" d="M1711.35,475.42l-1.81,1.1a11,11,0,0,0-2.26,2.74c-1.46,2.24-2.6,4.64-4.12,6.85-.19.28,1,.41,1.11.24,1-1.47,2-3,2.93-4.5a22.06,22.06,0,0,1,2-2.9,8.86,8.86,0,0,1,3.44-2.68S1711.69,475.22,1711.35,475.42Z"/><path class="cls-6" d="M1711.94,477.18a5.36,5.36,0,0,0-2.5,1.81,10.4,10.4,0,0,0-2.07,2.76c-1.14,1.9-2.17,3.81-3.47,5.62.06-.08,1.29-.24,1.51-.3.58-.17,1.79-.29,2.22-.75a47.56,47.56,0,0,0,3.39-4.39l1.19-1.53a6.8,6.8,0,0,1,3.1-2s-1.65-.73-1.64-.73C1713.4,477.52,1712.3,477,1711.94,477.18Z"/><path class="cls-6" d="M1712,476.54a5.37,5.37,0,0,0-2.49,1.82,10.55,10.55,0,0,0-2,2.76c-1.12,1.88-2.12,3.78-3.4,5.57,0,0,2.79-.17,2.8-.17.53-.06,2.29,0,2.77-.46a31.64,31.64,0,0,0,3.23-3.8,9.61,9.61,0,0,1,4.19-3.19s-2.46-1.4-2.46-1.4C1714.4,477.56,1712.42,476.31,1712,476.54Z"/><path class="cls-6" d="M1712,476.85a5.44,5.44,0,0,0-2.5,1.82,10.6,10.6,0,0,0-2,2.77c-1.12,1.89-2.13,3.79-3.42,5.59,0,0,1.18-.15,1.36-.2.5-.12,1.65-.19,2-.59a51.9,51.9,0,0,0,3.39-4.43l1.19-1.55a6.78,6.78,0,0,1,3.1-2.08,13.15,13.15,0,0,0-1.48-.8C1713.4,477.27,1712.36,476.66,1712,476.85Z"/><path class="cls-6" d="M1711,477.15a5.93,5.93,0,0,0-2.56,2,11.49,11.49,0,0,0-2.11,3c-1.15,2-2.16,4-3.43,6-.16.24.6.2.71,0,1.22-1.89,2.14-3.88,3.3-5.8l1.29-2a8.13,8.13,0,0,1,3.3-2.85C1711.73,477.28,1711.16,477.05,1711,477.15Z"/><path class="cls-6" d="M1685.87,517.19a14.3,14.3,0,0,0-.44,5.13,30,30,0,0,0,.89,5.24c0,.07,1.9-1.65,1.86-1.62.29-.28,1.64-1.29,1.66-1.83a26.13,26.13,0,0,0,0-4.15,13.74,13.74,0,0,1,.77-4.59s-2.43.78-2.4.77C1688,516.22,1686,516.77,1685.87,517.19Z"/><path class="cls-6" d="M1686,517.84a14.68,14.68,0,0,0-.46,5.15,29.86,29.86,0,0,0,.87,5.31s1.6-1.78,1.59-1.76c.3-.38,1.34-1.35,1.35-1.94a28.59,28.59,0,0,0-.06-4.34,14,14,0,0,1,.76-4.67l-2.1,1C1687.69,516.73,1686.09,517.38,1686,517.84Z"/><path class="cls-6" d="M1684.49,517.1a21.37,21.37,0,0,0-.35,4,32.39,32.39,0,0,0,1.13,7c0,.19.78-.15.73-.4a26.88,26.88,0,0,1-.65-10.67C1685.4,516.65,1684.51,516.92,1684.49,517.1Z"/><path class="cls-6" d="M1684.57,519.4a14.92,14.92,0,0,0-.38,5.28,28.37,28.37,0,0,0,1,5.56c.06.28,1.09-.76,1-1a28.28,28.28,0,0,1-.9-5.33,15.21,15.21,0,0,1,.41-5.16C1685.8,518.48,1684.62,519.12,1684.57,519.4Z"/><path class="cls-6" d="M1685.72,518.11a14.53,14.53,0,0,0-.45,5.17,30.09,30.09,0,0,0,.9,5.34s2-2.19,2-2.18c.36-.44,1.71-1.67,1.75-2.37a23.32,23.32,0,0,0,0-4.26,14,14,0,0,1,.81-4.62c0,.09-2.55,1.31-2.58,1.33C1687.86,516.69,1685.82,517.58,1685.72,518.11Z"/><path class="cls-6" d="M1686,517.44a14.38,14.38,0,0,0-.45,5.14,30.25,30.25,0,0,0,.88,5.26s1.93-1.84,1.91-1.81c.32-.35,1.65-1.43,1.68-2a24.2,24.2,0,0,0,0-4.17,13.49,13.49,0,0,1,.79-4.58l-2.47,1C1688.06,516.32,1686,517,1686,517.44Z"/><path class="cls-6" d="M1685.07,518.71a14.43,14.43,0,0,0-.41,5.19,32.47,32.47,0,0,0,.92,5.36s.78-.92.87-1c.28-.41,1.11-1.25,1.1-1.78,0-1.56-.11-3.11-.27-4.67a14.69,14.69,0,0,1,.63-4.84c0-.06-1.52.78-1.5.77C1686.15,517.86,1685.14,518.32,1685.07,518.71Z"/><path class="cls-6" d="M1684.92,517.67a15.48,15.48,0,0,0-.35,5.36,28.65,28.65,0,0,0,1,5.54c.08.34.86-.26.82-.43a20.23,20.23,0,0,1-.54-10.73C1685.94,517.09,1685,517.47,1684.92,517.67Z"/><path class="cls-6" d="M1685.55,518.71a14.64,14.64,0,0,0-.45,5.19,32.3,32.3,0,0,0,.89,5.35s1.43-1.88,1.43-1.89c.32-.47,1.17-1.42,1.18-2.06a28.37,28.37,0,0,0-.08-4.42,14.09,14.09,0,0,1,.73-4.73c0,.05-1.91,1.14-1.94,1.16C1687,517.52,1685.64,518.22,1685.55,518.71Z"/><path class="cls-6" d="M1685.77,517.77a14.47,14.47,0,0,0-.45,5.16,29.81,29.81,0,0,0,.9,5.3l2-2c.34-.38,1.72-1.56,1.76-2.21a23.57,23.57,0,0,0,0-4.2,13.82,13.82,0,0,1,.8-4.6s-2.57,1.14-2.58,1.15C1687.94,516.49,1685.86,517.28,1685.77,517.77Z"/><path class="cls-6" d="M1685.73,518.37a14.55,14.55,0,0,0-.45,5.17,33.11,33.11,0,0,0,.88,5.33s.89-1.08,1-1.24c.34-.49,1.27-1.43,1.28-2.06a34.54,34.54,0,0,0-.14-4.55,14.19,14.19,0,0,1,.71-4.75l-1.72.93C1687,517.37,1685.81,517.93,1685.73,518.37Z"/><path class="cls-6" d="M1684.67,519.69a15,15,0,0,0-.32,5.29,29.48,29.48,0,0,0,1.08,5.57c.07.3.92-.55.87-.77a31,31,0,0,1-1-5.38,15.78,15.78,0,0,1,.28-5.22C1685.59,518.91,1684.7,519.46,1684.67,519.69Z"/><path class="cls-4" d="M1518.29,220.91c-34,23.38-39.32,65.91-38.62,73.38a119.11,119.11,0,0,0,3.09,23.17h0c3.24,12.13,6.46,14,11.59,29.35a135,135,0,0,1,6.18,25.49c1.4,10.32.34,12.38,1.54,22.4a122.64,122.64,0,0,0,6.18,26.27c3,8.1,9.46,22.08,24,36.3l26.26,36.31a148.81,148.81,0,0,1,21.63,20.08c5.66,6.43,7.74,10,13.9,15.45,5.67,5,10.85,9.63,18.54,12.36,14.85,5.26,34.06,1.77,44-8.5,1.46-1.5,2.51-2.6,3.59-3.78,2.33-2.55,3.95-4.5,4.13-4.72,2.1-2.5,10.81-9.68,33.22-26.26l23.17-24.72,6-6.46a28.25,28.25,0,0,0,7.15-8c5.48-9.37,3.72-19.62,3.05-24.13-1.71-11.59-2.49-28.28-.77-54.07-2.1-.89-5-2.18-8.5-3.86-7.14-3.47-15.91-7.74-24.72-14.68a109,109,0,0,1-17.76-18.54c-19-25.67-19.35-59.94-19.31-67.2a97.22,97.22,0,0,0-23.18-38.62C1613.27,208.34,1557.9,193.66,1518.29,220.91Z"/><path class="cls-7" d="M1580.09,366.39c0,9.06.43,18.1.62,27.16,0,2.55.09,5.11.09,7.67a.5.5,0,0,0,1,0c0-9.05-.43-18.09-.62-27.14-.06-2.56-.09-5.13-.09-7.69a.5.5,0,0,0-1,0Z"/><path class="cls-8" d="M1576.33,354.54c0,7.9.3,15.82,0,23.72a109.11,109.11,0,0,1-1.11,11.82c-.62,4-1.6,8-2.41,11.93s-1.58,8-2.33,12c-.28,1.54-.58,3.05-1,4.55s-.91,2.84-1.36,4.26c-.82,2.62-1.63,5.42-1.3,8.19a9.63,9.63,0,0,0,4.46,6.78,25.58,25.58,0,0,0,9.6,3.8,28.43,28.43,0,0,0,9.82.3c.64-.1.37-1.06-.26-1a27,27,0,0,1-8.74-.19,26.48,26.48,0,0,1-8.55-2.95c-2.54-1.44-4.75-3.45-5.28-6.44-.47-2.65.33-5.4,1.11-7.91a76.72,76.72,0,0,0,2.39-8.67c.71-3.85,1.44-7.7,2.22-11.54s1.75-7.79,2.41-11.72a104.32,104.32,0,0,0,1.23-11.16c.51-8.6.17-17.22.16-25.82a.5.5,0,0,0-1,0Z"/><path class="cls-9" d="M1516.75,361.49c-1-4.8,7.36-10.84,13.9-13.13,9.83-3.44,19.93,0,23.95,3.09.06.05.79.6,1.73,1.37a45.1,45.1,0,0,1,4.45,4c2.17,2.35,3.27,3.52,3.09,4.63-.34,2-3.91,2.89-8.5,3.86-10.94,2.32-16.41,3.48-20.86,3.09C1531.06,368.14,1517.92,367,1516.75,361.49Z"/><path class="cls-9" d="M1668.92,332.91c-.82-3.44-7.74-4.41-14.84-5.41-12.3-1.73-25.74.43-27.26,5.41-.22.72-1.15,4.63-2.34,4.63a1.71,1.71,0,0,0-.75,0,1.53,1.53,0,0,1-.18.49,1.74,1.74,0,0,1-.2.41,2,2,0,0,1-.2.65,2,2,0,0,1-.38.65,16.71,16.71,0,0,0-.63,2.44c-.64,3.84-.21,5.49,0,6.12,0,0,0,.05,0,.06.65,1.73,4.89,1.65,8.57,1.54,9.8-.29,14.7-.57,15.58-.77C1657.53,346.64,1670.14,338.05,1668.92,332.91Z"/><path class="cls-10" d="M1520.61,360.72c-.18-1.91,1.37-4.08,2.32-5.41a16,16,0,0,1,5.4-4.63c9.73-5.35,20.59-1.72,23,0,.11.08.51.38,1,.79a8.3,8.3,0,0,1,3,4.2c0,.09.06.25.09.43a7.56,7.56,0,0,1-1.09,4.88,16.73,16.73,0,0,1-7.41,6.71C1536.67,372.34,1521.14,366.38,1520.61,360.72Z"/><path class="cls-9" d="M1558.46,355.31c-.52,3.09-1,6.18-1.55,9.27"/><path class="cls-11" d="M1560,359.17c.47-4.18-5-7.8-6.17-8.49-9.21-5.7-21.13.63-26.27,5.4-1.69,1.57-2.34,2.7-2.31,3.87.08,3.75,7.18,6.82,12.35,7.72C1547.25,369.34,1559.35,365,1560,359.17Z"/><path class="cls-10" d="M1664.28,335.23c0-4.36-4.27-7.47-4.63-7.73-8.68-6.25-26-.59-27.81,8.5-.81,4,1.56,9.36,5.41,11.59a14.2,14.2,0,0,0,7,1.54,15.9,15.9,0,0,0,4.63-.77C1649.64,348.11,1664.32,343.35,1664.28,335.23Z"/><path class="cls-11" d="M1660.42,333.68c-3.77-7.84-19.77-10.85-27.81-3.86-3.57,3.1-6.72,9.18-4.63,13.9,1.6,3.64,5.8,5,7,5.41.9.3,3.74,1.15,9.27,0,2.46-.51,15.82-3.28,17-10.81A8,8,0,0,0,1660.42,333.68Z"/><path class="cls-9" d="M1622.72,344.78a.5.5,0,0,0,0-1,.5.5,0,0,0,0,1Z"/><path class="cls-9" d="M1622.25,344.72s0,0,0,.08l0-.13c0,.06,0,.12,0,.19l0,.22a.34.34,0,0,0,0,.1.3.3,0,0,0,0,.19.37.37,0,0,0,.1.17.54.54,0,0,0,.16.1.45.45,0,0,0,.2,0l.13,0a.48.48,0,0,0,.22-.12l.08-.11a.52.52,0,0,0,.07-.25.38.38,0,0,1,0-.15l0,.14c0-.15.06-.3.07-.45a.3.3,0,0,0,0-.19.37.37,0,0,0-.1-.17.44.44,0,0,0-.16-.1.41.41,0,0,0-.19,0l-.14,0a.53.53,0,0,0-.22.12l-.07.11a.43.43,0,0,0-.07.25Z"/><path class="cls-12" d="M1563.86,467A46.86,46.86,0,0,0,1579,484.86c2.26,1.59,16.2,11.06,35,8.17,23.07-3.54,33.85-22.66,35-24.84,5.71-5.22,8.78-8.27,10.54-10.1.34-.35,1.16-1.21,2.33-2.33,2.25-2.14,5.45-6.27,5.45-7.07-1,.54-3.63,2.19-4.06,2.54a13.58,13.58,0,0,1-1.83,1.18c-1.39.84-2.61,1.49-2.61,1.49s1-.53,2.32-1.26a48.79,48.79,0,0,0,6.18-3.87c-.1-.17-5.24,3.45-11.74,5.66-6.75,2.3-12.2,1.73-19.32,2.11s-24.33.34-26.27,1.55a11.84,11.84,0,0,1-3.18,1.55c-4.21,1.29-7-.55-11.15-.77-2.5-.13-3.76.41-9.55,2.33-4,1.31-9.86,3.2-17.52,5.43Z"/><path class="cls-13" d="M1584,482.77c.38-2.77,16,3.31,42.36-1.7,7.28-1.38,12.13-3,12.45-1.69.51,2.05-10.25,11.14-22.42,13.54C1599.2,496.31,1583.57,485.58,1584,482.77Z"/><path class="cls-13" d="M1567.73,468.09c0-.16,2.08-.74,8.5-3.09l1.76-.66c8-2.94,11.93-4.42,15.23-4.75a21.33,21.33,0,0,1,13.13,3.09,34.65,34.65,0,0,0-7.72-1.55,33.24,33.24,0,0,0-10.05.78c-4.4,1-4.51,2-10,3.86C1572.78,467.69,1567.79,468.32,1567.73,468.09Z"/><path class="cls-12" d="M1593.31,475.32c-3.08.13-9.86.25-10.8,3.16-.31,1,.09,2.06.77,4a15.66,15.66,0,0,0,3.09,5.53c8.08,9.2,25.26,4.65,30.84,3.17,11.33-3,22.94-10,24.68-15.82a52.55,52.55,0,0,1,3.86-10.29l.77-1.58c-20.93,5.21-21.69,5.39-22.37,5.54C1605.43,473.14,1596.06,475.2,1593.31,475.32Z"/><path class="cls-12" d="M1614.85,474.26c-11.27,3.62-16.9,5.42-20.86,4.64-1.14-.23-3.37-.81-3.86,0s1.09,1.92.77,3.86c-.19,1.18-.88,1.44-.77,2.32.14,1.11,1.37,1.81,2.32,2.32,3.14,1.68,5,2.69,7,3.09,11.79,2.42,30.12-7.73,30.12-7.73,2.48-1.37,20-11.05,18.54-14.67-.86-2.19-8.79-2.71-13.9.77-3.74,2.54-3.76,5.71-7,6.18-3,.43-4.69-2.07-9.27-1.55A14.84,14.84,0,0,0,1614.85,474.26Z"/><path d="M1601.72,434.1c-.34-.44,3-3.45,6.82-5.37.65-.32,1.17-.54,1.71-.76,3.2-1.35,7.47-2.68,7.68-2.3C1618.35,426.43,1602.4,435,1601.72,434.1Z"/><path d="M1573.14,431.78c.16-.66,3.85-.82,6.95.77,2.31,1.19,4.2,3.33,3.86,3.87-.46.73-5.08-1.44-7-2.32C1574.56,433,1573,432.23,1573.14,431.78Z"/><path class="cls-13" d="M1607.9,460.36a8.23,8.23,0,0,1,3.08-1.54,15.16,15.16,0,0,1,3.87-.78c12.34-.84,23.94-.77,23.94-.77l3.14.1c1.06,0,2.34,0,7.68-.87,3.55-.56,4.63-.8,4.63-.77a56.84,56.84,0,0,1-13.9,2.31c-3.53.18-3-.17-7.73,0-6.21.24-6.74.84-11.58.78-3.57-.05-4.36-.39-7,0C1610.55,459.34,1608,460.56,1607.9,460.36Z"/><path class="cls-12" d="M1651.15,459.59c.48.09,1.44.28,1.55.77.21,1-3.49,2.6-4.64,3.09-4.18,1.78-6.38,1.86-11.59,3.09-1.62.38-4.68,1.29-10.81,3.09-4.49,1.32-4.2,1.28-7.72,2.32-8.84,2.59-12.2,3.29-16.22,3.09-2.4-.12-4.91-.25-5.41-1.55-.79-2,3.9-5.8,7-7.72,5.85-3.69,11.79-4.48,19.31-5.41,6.27-.77,4.83,0,10.82-.77C1633.39,459.59,1643.77,458.25,1651.15,459.59Z"/><path class="cls-12" d="M1607.12,466.54a40.28,40.28,0,0,1,10.82-3.86c10.55-2.07,26-3.29,26.26-1.55.1.67-2.14,1.16-10,4.64-8.59,3.77-8.33,4.25-11.59,5.4-10,3.54-21.18,2.23-21.63,0C1600.69,469.92,1603.83,468.27,1607.12,466.54Z"/><path class="cls-14" d="M1563.87,467.31c.18-.26,3.94,3.13,10,5.41,5.37,2,9.85,2.15,15.45,2.32,5.84.18,9.87.3,14.67-1.55,2.81-1.08,2.88-1.68,5.41-2.32,5.28-1.33,7.14.75,11.59-.77,3.38-1.15,3.09-2.61,6.18-3.09,2.9-.44,3.78.76,7,0a41,41,0,0,0,4.63-1.54c0-2.45,2.59.34,4.64,0,.68-.12,1.34-.31,6.18-3.09,2.17-1.26,3.28-1.89,3.86-2.32a21.71,21.71,0,0,0,4.63-4.63l.78-.78,1.54-1.54c2.08-1.72,3.5-2.64,3.86-2.32a1.31,1.31,0,0,1,0,.45c-.37,1.56-3.67,1.86-3.84,1.87a31.7,31.7,0,0,1-3.86,6.18,16.44,16.44,0,0,1-3.86,3.86c-.69.45-1.41.84-6.18,2.32-4.58,1.41-5.22,1.46-7,2.32-2.37,1.17-2,1.49-3.86,2.31-3.25,1.44-4.42.47-8.49,1.55-3.82,1-3.53,2.05-6.18,2.31-3.5.35-4.16-1.45-7.73-1.54-3.32-.08-3.81,1.46-9.27,3.09a39,39,0,0,1-9.27,1.54,46.33,46.33,0,0,1-11.58-.77,37,37,0,0,1-12.36-3.86C1566.64,470.43,1563.7,467.55,1563.87,467.31Z"/><path d="M1621.2,343.31a34,34,0,0,0-3.26,7.37Z"/><path d="M1564.18,360.5l-.49-.3c0-.17-.08-.32-.12-.47a2.1,2.1,0,0,1-.22-.3,2.72,2.72,0,0,1-.34-.42,8.48,8.48,0,0,0,.42,1.65,1.3,1.3,0,0,1,.15.75,1.59,1.59,0,0,1-.59.92,8.69,8.69,0,0,1-1.36,1.07l-2.26.48-5,1.79,5-1a7.06,7.06,0,0,0,1.61-.38,7.17,7.17,0,0,0,2.11-1.24,1.7,1.7,0,0,0,2.26-.47,1.44,1.44,0,0,0-.31-1.51A8.39,8.39,0,0,0,1564.18,360.5Z"/><path d="M1613.3,345.27c-.19-.09,1.44-5.74,5.41-11.59a35.61,35.61,0,0,1,7.72-8.49c8-6.13,17.27-6.17,20.86-6.18,15.92-.07,27.29,9.49,27,10s-9.08-5.82-23.17-6.95c-4.91-.4-19-1.53-28.58,6.95C1615.12,335.66,1613.55,345.38,1613.3,345.27Z"/><path class="cls-15" d="M1668.92,335.23c.32.36-6.38,10.61-17,13.13-3.38.8-6,.53-13.13,2.32-2.5.62-3.85,1.06-6.51,1.55-5.67,1-10.45,1-10.48.76-.06-.54,19.62.92,37.08-10C1665.17,339,1668.7,335,1668.92,335.23Z"/><ellipse class="cls-16" cx="1647.54" cy="336.37" rx="10.53" ry="10.41" transform="translate(600.76 1652.34) rotate(-63.04)"/><ellipse class="cls-17" cx="1647.29" cy="335.61" rx="8.5" ry="8.88"/><circle class="cls-17" cx="1647.29" cy="335.23" r="7.72"/><path class="cls-15" d="M1646,285.25a292.4,292.4,0,0,0-52,32.69c1.17,4.32,3.1,7.88,6.35,9.05,4.68,1.7,9.73-2.46,28.32-16.23,13.2-9.77,17.68-12.88,24.77-14.35a40.08,40.08,0,0,1,15.68,0c1.24-3.48,4.09-12.59,0-16.16C1665.2,276.84,1656.71,280.05,1646,285.25Z"/><path d="M1667.37,329.82l7-10.81-11.4,8.58,7.53-10.9-12.36,8.5,6.37-10.76-13.32,7.67,6.18-10.05-10,7-.39-7-5.3,12.16-.89-12.16-3.55,12.16-3-9.33-3.22,12.71-1.71-8.58-2.73,12.36-2.9,6.53s0,.09,0,.13a2.11,2.11,0,0,1-.16.34l-.05.11a1.88,1.88,0,0,1-.19.61,2.16,2.16,0,0,1-.35.63l-1.6,3.59c.56-.95,1.19-1.93,1.92-2.93a30.62,30.62,0,0,1,11.81-9.79c10.88-5,24.06-3.22,34,4.64l6.95-12.36Z"/><path d="M1622,343.74s0,0-.08.53-.08,1-.14,2.09l-.43.4a7.42,7.42,0,0,0-.81.79,1.44,1.44,0,0,0,0,1.58,1.82,1.82,0,0,0,2.42,0,7.54,7.54,0,0,0,4.16.84l5.38-.09-3.7-.75h-3.09a8,8,0,0,1-2.75-.79,1.56,1.56,0,0,1-.81-.79,1.39,1.39,0,0,1,0-.79A5.62,5.62,0,0,0,1622,343.74Z"/><path d="M1512.11,350.68a25.21,25.21,0,0,1,10.05-8.5c19.81-8.86,47.17,14.58,47.11,14.68s-18.76-17.16-40.94-13.14A41.12,41.12,0,0,0,1512.11,350.68Z"/><path class="cls-15" d="M1561.64,364.58c0,.24-3.5,1.21-4.73,1.54-16.53,4.49-24.83,6.74-32.44,3.09-5-2.37-8-6.49-7.72-6.95s4.64,3.67,11.58,5.41c4.51,1.13,10.53.25,22.41-1.55C1556.93,365.19,1561.58,364.3,1561.64,364.58Z"/><ellipse class="cls-18" cx="1540.31" cy="355.31" rx="11.59" ry="11.97"/><circle class="cls-17" cx="1540.31" cy="355.7" r="9.66"/><circle class="cls-17" cx="1540.31" cy="355.7" r="8.11"/><path class="cls-15" d="M1483.55,327.59c-.51,3.35,2.72,7.21,7.72,9.57a17.84,17.84,0,0,1,8.44-8.11c4.5-1.93,8.82-1.22,11.32-.77,9.92,1.75,24,4.28,41.25,7.72a12.93,12.93,0,0,0-2.32-8.5,12.12,12.12,0,0,0-3.34-3.09c-26.17-5.5-45.5-7.76-48.53-7a33.86,33.86,0,0,0-7.28,3.09C1487.4,322.57,1484,324.56,1483.55,327.59Z"/><path d="M1516.75,362.26c1.22-2.67,5.28-10.59,13.9-13.9,11.31-4.34,26,1,34.76,13.9L1543,336l2.63,9.27L1537.2,336l3.49,7.5L1531,332.4l4.27,10.72-9.6-10.72,2.68,11.32-6.95-9.27.78,7.73-5.41-5.53,4,10.68-8.65-7.15,5.42,11.79-7.87-6.7,4.88,11.59-11.76-11.59,7,13.9-9.92-7.2,4.51,8c6.95,3.08,3.09,4.63,3.09,4.63Z"/><circle cx="1541.47" cy="355.31" r="3.09"/><circle cx="1646.52" cy="336" r="3.09"/><circle class="cls-19" cx="1545.71" cy="353.38" r="1.16"/><ellipse class="cls-19" cx="1538.38" cy="355.7" rx="0.77" ry="1.16"/><circle class="cls-19" cx="1649.22" cy="334.07" r="1.16"/><ellipse class="cls-19" cx="1644.2" cy="337.16" rx="0.77" ry="1.16"/><polygon class="cls-20" points="1567.73 743.07 1537.43 768.68 1525.54 766.22 1559.23 739.21 1471.84 739.21 1464.99 735.3 1583.56 735.3 1567.73 743.07"/><path class="cls-21" d="M1419.81,787.48c1.54-1.31,10,9.69,28.58,22.41,23.62,16.19,40.78,19.58,40.16,21.62-.74,2.45-26.65,1.78-47.11-13.9C1426.15,805.9,1418.05,789,1419.81,787.48Z"/><path class="cls-21" d="M1427.92,780.92c1.37-1.88,11.92,5,30.12,13.13,25.68,11.45,40.54,13.71,40.17,15.45-.45,2.09-22-.8-40.17-6.18a55.13,55.13,0,0,1-20.08-10C1432.8,789.09,1426.78,782.49,1427.92,780.92Z"/><path class="cls-22" d="M1433.33,770.1c.31-2.05,15.71-1.48,24.71-.77,34,2.71,65.62,14.6,64.89,17.77s-34.37-2.06-54.07-6.18C1456,778.23,1432.94,772.66,1433.33,770.1Z"/><ellipse class="cls-23" cx="1717.71" cy="672.02" rx="2.17" ry="140.88" transform="matrix(0.6, -0.8, 0.8, 0.6, 152.77, 1648.29)"/><path class="cls-23" d="M1399.73,603.65c.16-.12,10,11,17.76,24.71,23.79,42,13.16,91.15,13.13,91.15l0-.42c.74-9.9-1.57-27.27-1.57-38.2v-1.55a86.8,86.8,0,0,0-1.55-15.44,120.91,120.91,0,0,0-7.72-24.72,153.85,153.85,0,0,0-7.73-15.45C1405.35,611.54,1399.59,603.74,1399.73,603.65Z"/><path class="cls-23" d="M1411.31,663.12c.24-.38,3.64.61,7,3.09,10,7.49,10.88,22.39,10.82,22.4a27.52,27.52,0,0,0-3.86-11.58C1419.77,667.77,1410.92,663.76,1411.31,663.12Z"/><path class="cls-23" d="M1388.91,826.88a36.39,36.39,0,0,0,13.91-17c5.42-14.53-1.25-30.18-1.55-30.13a75.57,75.57,0,0,1,.77,11.59,78.89,78.89,0,0,1-1.54,13.13,58.46,58.46,0,0,1-1.93,8.88A31.27,31.27,0,0,1,1388.91,826.88Z"/><path class="cls-23" d="M1429.46,735.35c.34.43-4.84,3.93-10,10-7,8.16-7.79,13.77-13.9,27s-13.27,25-13.91,24.72,5.73-11.32,13.91-32.44c3.23-8.33,5.12-14.05,10.81-20.09S1429.08,734.86,1429.46,735.35Z"/><path class="cls-21" d="M1414,792.51c-1.11-.42-4.37,5.81-6.18,9.26-3.56,6.79-6.94,13.39-7.73,22.41-.18,2.1,0,1.82,0,7.72,0,19.17-1.84,25.62,1.55,27.81,2.18,1.41,5.1.13,7.72-.78,19-6.58,38.38.76,38.62-.77.27-1.69-24.87-1.81-32.44-16.22-2.68-5.1-3.55-12.75-3.86-15.45a71.46,71.46,0,0,1,0-14.67C1412.63,799.78,1415.14,792.93,1414,792.51Z"/><path class="cls-23" d="M1393.93,556.14c-1.23-.11-2.06-7.85-.9-15a42,42,0,0,1,1.67-6.64c2.76-7.6,11.69-20,25.49-22.4,17.13-3,31.48,11.12,30.9,12.36s-13.75-7.6-30.12-3.86a32.3,32.3,0,0,0-15.45,7.72C1394.11,539.13,1395.77,556.31,1393.93,556.14Z"/><path class="cls-23" d="M1456.5,525.24c.15-1.33,9-.89,10.81,0l1.55.78h0c6.16.55,6.18.77,6.18.77,0,.47-3.68,1.57-7.73,1.54C1462,528.3,1456.38,526.32,1456.5,525.24Z"/><path class="cls-24" d="M1450.32,529.88c-5.81-6-15.16-5.16-20.86-4.64-5.13.48-13.21,1.23-19.31,7s-4.07,10.5-9.27,41.71c-1.57,9.44-2.07,10.93-.77,12.36,8.05,8.81,53.44-19.67,55.62-35.53a32.44,32.44,0,0,0,0-7.73C1455.41,540.71,1454.53,534.25,1450.32,529.88Z"/><path class="cls-25" d="M1439.51,716.81c1.81,1.07,31.26-28.44,31.67-68,.18-18.29-5.89-35-7.73-34.76s1.78,18.66-1.54,42.49C1456.66,694.23,1438,715.92,1439.51,716.81Z"/><path class="cls-23" d="M1834.22,762.38c.57-.34,6.56,7.24,11.58,17a100.1,100.1,0,0,1,9.45,27.7c5.34,28.89-2.16,54.22-2.49,54.18A138.67,138.67,0,0,0,1854.3,835a165.33,165.33,0,0,0-3.09-25.49,159.64,159.64,0,0,0-3.86-16.22C1841.68,774.4,1833.52,762.8,1834.22,762.38Z"/><path class="cls-26" d="M1613.3,611c8.07-5.26,24,21.39,98.87,74.16,27.19,19.15,59.47,39.84,57.94,42.48-.85,1.45-10.21-5.44-23.95-7-28.71-3.16-41.93,21-60.25,21.63C1644,743.85,1596.91,621.68,1613.3,611Z"/><path class="cls-27" d="M1598.63,750c-1.39,2.5,11.72,9.26,27,25.49,23.4,24.81,28.43,47,37.08,45.58,5-.85,5.11-8.55,10.81-19.32,15.15-28.58,46.48-35.58,44.8-40.16-1.55-4.26-26.43,7.3-59.47,4.63C1624.12,763.44,1600.56,746.53,1598.63,750Z"/><path class="cls-4" d="M1713.72,481.22c-.14,0-.42,12.75-1.55,22.4-5.11,43.66-33.71,75.86-34,75.69A331.58,331.58,0,0,0,1699,540.69c10.69-23.24,12.6-33.84,13.13-37.07A115.79,115.79,0,0,0,1713.72,481.22Z"/><path class="cls-4" d="M1640.34,550a15.24,15.24,0,0,1,10.81-1.54c6.52,1.73,11.42,8.6,11.59,17Z"/><path class="cls-28" d="M1856.42,815a128.83,128.83,0,0,0-3.28-16,122.18,122.18,0,0,0-22.4-43.25l.56-5.8,13.34-17.38-4.88-15.34,3.73-7.44,6.18,10V692.18l4.63,15.36,4.63-16.22,3.09,13.9,8.5-25.49,6.18,10.81V673.9l13.2,10.17-6.25-37.55-42.87-92.62V542.62a77.45,77.45,0,0,1,31.67,15.45c29.56,24.53,34.85,69.54,27.81,100.42-3.41,15-7.29,16-15.45,45.57-6.23,22.61-4.9,25.4-10.81,40.17-5.28,13.18-9.34,18.44-11.59,31.67a87.31,87.31,0,0,0-.77,23.94,89.49,89.49,0,0,0,3.86,17.77c2.87,9.63,4.78,24.65,0,47.89l-11.68-.39c.22-.86.56-2.2.94-3.86A128.94,128.94,0,0,0,1856.42,815Z"/><path class="cls-29" d="M1852.37,548.8c1.78-1.89,13.86,5.41,23.17,14.68,2.91,2.9,10.48,10.94,17,27,11.74,29,9.69,57.7,7.72,57.93-1.2.14-1.47-10.37-8.11-29a218.09,218.09,0,0,0-19.31-39.39C1860.27,559.58,1850.63,550.66,1852.37,548.8Z"/><path class="cls-29" d="M1845.42,769c.2-.29,2.16,1.14,6.18,3.09,3.76,1.82,8.44,3.67,8.49,5.4,0,.2,0,.68,0,1.55.05,1.12.18,1.4,0,1.54-.39.31-1.88-.37-2.31-1.54-.37-1,.32-1.54,0-2.32-.4-1-1.78-.87-3.87-1.54a17.31,17.31,0,0,1-5.4-3.09C1847.07,770.94,1845.21,769.24,1845.42,769Z"/><path class="cls-29" d="M1846.58,779.37a2.31,2.31,0,0,1-.78-.77,2.22,2.22,0,0,1,0-2.32c.37-.49.89-.48,2.32-.77,2.44-.48,2.18-.75,3.09-.77a5.85,5.85,0,0,1,4.63,2.32c1,1.36.44,2.15,1.55,3.09.79.66,1.47.6,2.32,1.54.12.13,1,1.16.77,1.55s-1.93-.82-4.64-.78c-1.16,0-1.49.27-2.31,0a6.72,6.72,0,0,1-2.32-1.54c-.47-.48-.45-.61-.77-.77-.6-.31-1.11-.08-2.32,0a13,13,0,0,1-1.54,0"/><path class="cls-30" d="M1568.5,125.9c-25,5.61-37.77,8.28-50.21,14.68-40.44,20.79-54.72,67.89-64.11,98.87-18.5,61-11.13,116.05-3.09,149.85a134.82,134.82,0,0,1,24.72,40.94c22.74,60.06-6.58,117-13.13,129l16.93-17.9-12.3,60.39q7.08-14.61,9.27-13.91,4.85,1.55-13.9,77.24l16.93-45.12L1472,685.14s11.51-36.28,11.55-34.75-9.24,56.38-9.24,56.38l5.89-16.74,8.79-25-1.54,24c2.26-6.81,5-14.18,6.18-13.9,1.55.35-1.07,13.07-.78,23.17.38,12.92,5.81,30.62,27.81,51.75l-8.5-20.42,13.13,14.62-7.33-26.2,19.69,32-17-49.06L1538,719.85l-9.3-35.34L1560,721.07l-10.84-22.55L1567,715.58l-3.1-12.18,9.27,8.53-3.86-13.41,9.29,7.92-9.29-17.06,27,11.58c-16.82-14-19.86-18-19.22-18.91s5.32,2,13.13,3.09c7.19,1,15.85,1,16.22-.77.45-2.1-11.54-3.61-22.4-11.59-16.6-12.2-22.74-33.76-20.08-35.53,1.92-1.29,8.1,8,27.8,25.49,16,14.17,30.84,24.89,31.67,23.94s-14.92-11.75-27-32.44c-12.77-21.83-15.39-44.31-13.91-44.8,1.68-.55,10.72,26.21,13.14,25.49,1.79-.54-1-16-7-41.71l17.77,22.44L1600.93,535a75.66,75.66,0,0,1-6.94-5.87c-2.62-2.52-3.8-4-11.59-13.13-4-4.63-4.51-5.26-5.4-6.18-3.59-3.73-33.92-38.26-44.8-52.53-13.26-17.37-14.56-18.08-17.77-23.17-6.75-10.68-13.74-27.65-13.19-54.45-.94-8.67-2.48-22.31-4.57-39-7.55-60.15-11.69-75.09-3-93,8.84-18.32,25-27.29,30.83-30.56,35.07-19.58,76.87-7.87,102,9.26,6.67,4.56,35.6,24.31,39.4,53.3.89,6.82.07,11.73,2.31,23.18,1.07,5.43,4.74,22.14,13.91,37.07,16.43,26.77,44.23,37.6,54.07,40.94a64.14,64.14,0,0,0-1.55,10,88.92,88.92,0,0,0,0,10c.25,6.17.7,10.75.78,11.59,1.22,13.41-4.21,29.7-12.86,55.66h0a90.08,90.08,0,0,0-4.91,8.45c-.41.81-.7,1.4-.77,1.55-1.46,3-7,13.36-20.86,38.62l11.59-10.82-13.13,23.95,8.49-10-10.81,21.63,8.5-11.23-14.68,27.5L1699,545.33l3.09,46.34c1.86-9.64,3.08-11.62,3.86-11.58,1.13,0,1.32,4.31,3.09,9.27a36.1,36.1,0,0,0,9.27,13.9l9.27,31.67-2.32-23.17,10.82,37.67-2.32-20.68L1750,657.33V642.76l16.22,40.06V663.74l13.13,20.63-4.63-21.63s20.26,25.32,20.86,24.85c0,0,0-.09,0-.13A116.18,116.18,0,0,0,1774,648.83a42,42,0,0,1,9.27,4.64,42.86,42.86,0,0,1,11.58,11.58A44.65,44.65,0,0,1,1801,679c3.89,14.14,1.15,27.26-.77,34l9.27-7.73-7,17.77,10-5.41-2.32,11.59q-.39,5.79-.77,11.58l4.8-7.2,2.92-4.38,5.41,7,6.18-17.77,5.41,10,9.27-18.53,6.18,10V692.18l4.63,15.36,4.63-16.22,3.09,13.9,8.5-25.49,6.18,10.81V673.9l13.9,10.47a70.05,70.05,0,0,0-3.86-30.13c-1.44-4-3.21-7.66-3.09-7.72.43-.21,20.33,44.08,22.4,43.25,1.49-.59-6.47-24.32-16.22-51.75-2.2-3.95-6.48-11.72-11.58-21.63-25-48.57-48.78-94.35-54.07-154.48-1.23-14-.27-12.47-1.55-23.18-4.62-38.63-16.78-54.7-27.81-99.64-3.36-13.71-2.39-12.89-6.18-30.13-12.28-56-19.75-90.06-40.16-120.49-4.33-6.45-46.21-67.11-108.92-71.84C1617.28,115,1593.06,120.38,1568.5,125.9Z"/><path class="cls-23" d="M1602.49,539.15c.46-.39,2.34,1.9,5.41,3.86,6.13,3.92,11.12,2.79,17.76,3.86,12.32,2,20.15,9.92,20.08,10s-9-6.6-20.08-7.72l-7.72-.77c-6.88-.6-8.15-.49-10-1.55C1603.81,544.58,1601.89,539.65,1602.49,539.15Z"/><path class="cls-4" d="M1660.31,416.9l-3.08-2.54a.51.51,0,0,0-.7,0,.5.5,0,0,0,0,.71l3.08,2.53a.49.49,0,1,0,.7-.7Z"/><path class="cls-31" d="M1604,517.52c-1.15,1.2-4.52,4.7-3.86,8.5,1.26,7.31,16.83,12.1,29.35,10,12-2,25.16-10.94,24-17C1651.66,510.06,1617.34,503.68,1604,517.52Z"/><path class="cls-31" d="M1670.46,508.25C1672,510,1701,496.81,1716,467.31c13.84-27.23,9.51-56.18,7.72-56.38-1.4-.16-1.07,17.27-10,39.39C1698.21,488.53,1668.86,506.39,1670.46,508.25Z"/><path class="cls-31" d="M1498.21,305.1c-2.72-6.17-11.11-27.3-3.09-50.21a56.24,56.24,0,0,1,13.9-22.4c2.15-2.07,9.07-8.45,22.4-13.13,14.2-5,54.82-14.77,90.38,7.73,25.36,16,36.35,41.06,35.53,41.71s-13.16-23.4-39.39-37.85c-5.21-2.87-54.55-29.06-91.92-.77C1492.34,255.67,1497.93,303,1498.21,305.1Z"/><path class="cls-31" d="M1590.9,309c.94.73,5.53-6.16,15.45-13.9,23.15-18.05,46.72-18.34,46.35-20.85-.35-2.32-20.83-5.75-38.63,4.63C1596.71,289,1589.46,307.85,1590.9,309Z"/><path class="cls-31" d="M1505.16,302c-10.38-10.65.13-50.16,26.26-65.65,40.76-24.17,104.67,18.85,102.74,26.26-.72,2.75-10-1.63-21.63,3.86-26.67,12.57-25,57.57-37.08,57.93-5.25.16-5.43-8.37-14.67-15.45C1541.06,293.87,1515,312.09,1505.16,302Z"/><path class="cls-8" d="M1626.33,429.13a21.94,21.94,0,0,1-9.24,5.52,50.21,50.21,0,0,1-11.11,2.29q-2.77.27-5.55.3a.5.5,0,0,0,0,1,62.18,62.18,0,0,0,10.72-1,37.32,37.32,0,0,0,11-3.67,19.08,19.08,0,0,0,4.86-3.7c.43-.47-.27-1.18-.71-.71Z"/><path class="cls-29" d="M1583.69,437.19c-6.43-1.09-10.87-6.5-16.88-8.63-.61-.21-.87.75-.27,1,6,2.13,10.42,7.53,16.88,8.62.63.11.9-.85.27-1Z"/><path class="cls-32" d="M1704.45,371.53c-12.69-.21-13.75,20.7-38.62,37.08-5,3.3-12.65,6.41-12.36,10.81.08,1.26.88,3.78,7.72,6.95s27.87,12.91,45.58,0c12.43-9.06,21-27.6,13.9-41.71C1720.1,383.53,1714,371.69,1704.45,371.53Z"/><path class="cls-32" d="M1510.4,399.34c1,6.33-.07,9.59,0,13.13.15,7.7,5.44,13.7,7.64,16.22,6.55,7.5,21.9,17,34.37,9.27,12.65-7.85,14.9-27.49,8.4-34-5.71-5.7-14.46,2.54-31.7-3.09-9.63-3.14-17.38-9.13-19.31-6.95C1509.07,394.75,1509.9,396,1510.4,399.34Z"/><path class="cls-31" d="M1613.3,357.63c.3-1.28,12.94,4.7,29.35,0,19.69-5.65,27.67-21.75,31.67-19.31,3.63,2.2,2,18.4-7.72,26.26C1649.09,378.73,1612.8,359.79,1613.3,357.63Z"/><path class="cls-31" d="M1514.43,373.08a52.08,52.08,0,0,0,14.68,3.86c22.78,2.48,39.41-11.59,40.94-9.27,1.23,1.87-7.78,13.91-21.63,17C1530,388.78,1515.49,374.18,1514.43,373.08Z"/><path class="cls-31" d="M1626.43,493.58c-.27-.83,7.32-2.22,14.68-8.5,6.07-5.18,6-8.54,12.36-17,7.63-10.08,16.44-16.74,17-16.23s-7.65,7.41-17,21.63c-5.59,8.5-7.46,13.34-13.91,17C1633.4,494,1626.68,494.33,1626.43,493.58Z"/><path class="cls-29" d="M1645,424.4a99.7,99.7,0,0,1,15.45,5.7c4.79,2.34,9.43,5.33,12.79,9.53a20.87,20.87,0,0,1,3.94,7.84.5.5,0,0,0,1-.27,24.24,24.24,0,0,0-8.9-12.88,55.61,55.61,0,0,0-15-7.93c-3-1.11-6-2.06-9-2.95a.5.5,0,0,0-.27,1Z"/><path class="cls-29" d="M1566.62,431.72c-.22,2.81-2,5.28-3.63,7.43-1.86,2.37-3.93,4.59-5.6,7.11A20.42,20.42,0,0,0,1555,462.1a13.9,13.9,0,0,0,4.65,7.71c.5.39,1.22-.31.71-.71-4.4-3.46-5.45-9.72-4.76-15a17.08,17.08,0,0,1,2.69-7.36c1.64-2.47,3.68-4.64,5.5-7s3.63-5,3.87-8.06c.05-.64-.95-.63-1,0Z"/><path class="cls-29" d="M1668.74,435c-.17,3.45,1.84,6.17,2.94,9.29,1.38,3.92.66,8.14.32,12.17-.06.64.94.64,1,0,.33-4,1-8.16-.23-12.07-1-3.17-3.21-5.92-3-9.39,0-.65-1-.64-1,0Z"/><path class="cls-33" d="M1637.55,542.14c7-1.28,13.13-3.11,18.25-8.36,4.59-4.71,8.6-9.66,13.79-13.78,10-8,21.48-14.13,29.65-24.22a127,127,0,0,1,17.22-17.48"/></g></svg>
